<<<<<<< HEAD
<?xml version="1.0" encoding="UTF-8"?>
<svg id="Layer_2" data-name="Layer 2" xmlns="http://www.w3.org/2000/svg" viewBox="0 0 41.11 14.33">
  <defs>
    <style>
      .cls-1 {
        fill: #24282b;
        stroke-width: 0px;
      }
    </style>
  </defs>
  <g id="Layer_1-2" data-name="Layer 1">
    <path class="cls-1" d="M32.87,14.33c-.37-.73-.03-1.25.49-1.74,1.37-1.32,2.72-2.66,4.36-4.26H.18c-.25-.65-.25-1.3,0-1.96h37.1c.06-.09.11-.17.17-.26-1.16-1.14-2.33-2.27-3.49-3.41-.3-.29-.59-.59-.87-.89-.47-.49-.58-1.05-.05-1.53.51-.46,1.06-.32,1.54.16,2.02,2.03,4.05,4.05,6.08,6.07.13.13.19.38.46.34v.75c-.21.44-.35.91-.72,1.27-1.6,1.57-3.18,3.16-4.76,4.75-.3.3-.67.48-1.01.71h-1.75Z"/>
  </g>
=======
<?xml version="1.0" encoding="UTF-8"?>
<svg id="Layer_2" data-name="Layer 2" xmlns="http://www.w3.org/2000/svg" viewBox="0 0 41.11 14.33">
  <defs>
    <style>
      .cls-1 {
        fill: #24282b;
        stroke-width: 0px;
      }
    </style>
  </defs>
  <g id="Layer_1-2" data-name="Layer 1">
    <path class="cls-1" d="M32.87,14.33c-.37-.73-.03-1.25.49-1.74,1.37-1.32,2.72-2.66,4.36-4.26H.18c-.25-.65-.25-1.3,0-1.96h37.1c.06-.09.11-.17.17-.26-1.16-1.14-2.33-2.27-3.49-3.41-.3-.29-.59-.59-.87-.89-.47-.49-.58-1.05-.05-1.53.51-.46,1.06-.32,1.54.16,2.02,2.03,4.05,4.05,6.08,6.07.13.13.19.38.46.34v.75c-.21.44-.35.91-.72,1.27-1.6,1.57-3.18,3.16-4.76,4.75-.3.3-.67.48-1.01.71h-1.75Z"/>
  </g>
>>>>>>> origin/main
</svg>