<?xml version="1.0" encoding="UTF-8"?>
<svg id="Layer_2" data-name="Layer 2" xmlns="http://www.w3.org/2000/svg" viewBox="0 0 56.17 60.39">
  <defs>
    <style>
      .cls-1 {
        fill: #fefefe;
      }

      .cls-1, .cls-2, .cls-3, .cls-4, .cls-5, .cls-6 {
        stroke-width: 0px;
      }

      .cls-2 {
        fill: #d77cd3;
      }

      .cls-3 {
        fill: #eecaed;
      }

      .cls-4 {
        fill: #c8f2f3;
      }

      .cls-5 {
        fill: #54889f;
      }

      .cls-6 {
        fill: #467a8c;
      }
    </style>
  </defs>
  <g id="Layer_1-2" data-name="Layer 1">
    <path class="cls-5" d="M27.54,32.83c-2.22,1.13-4.46,2.14-6.97,2.57C11.33,36.99,1.97,30.49.33,21.24c-.95-5.36.08-10.34,3.62-14.51C8.78,1.04,15-1.27,22.28.68c7.28,1.95,11.69,6.9,13.02,14.37.87,4.87-.34,9.31-3.2,13.32-.21.3-.39.63-.59.94-1,1.54-2.25,2.8-3.98,3.52Z"/>
    <path class="cls-2" d="M38.86,37.61c.82.45,1.67-.12,2.56.11,1.2.32,2.3.74,3.13,1.66,3.44,3.83,6.91,7.64,10.25,11.56,2.17,2.55,1.69,5.82-.98,8.16-2.15,1.88-5.6,1.72-7.65-.52-3.48-3.8-6.87-7.68-10.27-11.54-1.26-1.43-1.3-3.18-1.05-4.95.04-.32.23-.63,0-.94.78-1.81,2.11-2.99,4.02-3.52Z"/>
    <path class="cls-6" d="M38.86,37.61c-.25.62-.92.64-1.4.88-1.19.6-1.61,1.9-2.62,2.64-2.44-2.77-4.87-5.53-7.31-8.3,1.33-1.17,2.65-2.34,3.98-3.52,2.45,2.76,4.9,5.53,7.35,8.29Z"/>
    <path class="cls-4" d="M3.8,17.85c0-7.74,6.24-14.02,13.91-14.02,7.78,0,14.08,6.27,14.08,14,0,7.77-6.28,14.01-14.07,13.99-7.75-.02-13.93-6.23-13.93-13.97Z"/>
    <path class="cls-3" d="M49,58.59c0,.5-.36.54-.72.29-.75-.52-1.55-1.01-2.14-1.68-3.08-3.42-6.11-6.88-9.12-10.36-.53-.62-.86-1.41-1.26-2.14-.1-.17-.24-.41,0-.55.16-.09.43-.12.58-.04.4.21.82.44,1.13.76,3.77,3.74,7.21,7.79,10.61,11.87.42.51.75,1.09.92,1.85Z"/>
    <path class="cls-1" d="M7.88,16.32c-2.32,0-2.92-.77-2.4-2.31,1-2.94,3.17-4.89,5.71-6.49,1.02-.64,2.1-1.14,3.32-1.31,1.26-.18,2.17.73,1.88,1.98-.59,2.54-2.37,4.24-4.25,5.82-1.43,1.2-2.98,2.26-4.25,2.32Z"/>
  </g>
</svg>