<?xml version="1.0" encoding="UTF-8"?>
<svg id="Layer_2" data-name="Layer 2" xmlns="http://www.w3.org/2000/svg" viewBox="0 0 177.95 203.45">
  <defs>
    <style>
      .cls-1 {
        fill: #c3ad9d;
      }

      .cls-1, .cls-2, .cls-3, .cls-4, .cls-5, .cls-6, .cls-7, .cls-8, .cls-9, .cls-10, .cls-11, .cls-12, .cls-13, .cls-14, .cls-15, .cls-16, .cls-17, .cls-18, .cls-19, .cls-20, .cls-21, .cls-22, .cls-23, .cls-24, .cls-25, .cls-26, .cls-27, .cls-28, .cls-29, .cls-30, .cls-31, .cls-32, .cls-33, .cls-34, .cls-35, .cls-36, .cls-37, .cls-38, .cls-39, .cls-40, .cls-41, .cls-42, .cls-43, .cls-44, .cls-45, .cls-46, .cls-47, .cls-48, .cls-49, .cls-50, .cls-51, .cls-52, .cls-53, .cls-54, .cls-55, .cls-56, .cls-57, .cls-58, .cls-59, .cls-60, .cls-61, .cls-62, .cls-63, .cls-64, .cls-65, .cls-66, .cls-67, .cls-68, .cls-69, .cls-70, .cls-71, .cls-72, .cls-73, .cls-74, .cls-75, .cls-76, .cls-77, .cls-78, .cls-79, .cls-80, .cls-81, .cls-82, .cls-83, .cls-84, .cls-85, .cls-86, .cls-87, .cls-88, .cls-89, .cls-90, .cls-91, .cls-92, .cls-93, .cls-94, .cls-95, .cls-96, .cls-97, .cls-98, .cls-99, .cls-100, .cls-101, .cls-102, .cls-103, .cls-104, .cls-105, .cls-106, .cls-107, .cls-108, .cls-109, .cls-110, .cls-111, .cls-112, .cls-113, .cls-114, .cls-115, .cls-116, .cls-117, .cls-118, .cls-119, .cls-120, .cls-121, .cls-122, .cls-123, .cls-124, .cls-125, .cls-126, .cls-127, .cls-128, .cls-129, .cls-130, .cls-131, .cls-132, .cls-133, .cls-134, .cls-135, .cls-136, .cls-137, .cls-138, .cls-139, .cls-140, .cls-141, .cls-142, .cls-143, .cls-144, .cls-145, .cls-146, .cls-147, .cls-148, .cls-149, .cls-150, .cls-151, .cls-152, .cls-153, .cls-154, .cls-155, .cls-156, .cls-157, .cls-158, .cls-159, .cls-160, .cls-161, .cls-162, .cls-163, .cls-164, .cls-165, .cls-166, .cls-167, .cls-168, .cls-169, .cls-170, .cls-171, .cls-172, .cls-173, .cls-174, .cls-175, .cls-176, .cls-177 {
        stroke-width: 0px;
      }

      .cls-2 {
        fill: #c08567;
      }

      .cls-3 {
        fill: #a5a0c1;
      }

      .cls-4 {
        fill: #663920;
      }

      .cls-5 {
        fill: #ebc398;
      }

      .cls-6 {
        fill: #64371f;
      }

      .cls-7 {
        fill: #f39ea8;
      }

      .cls-8 {
        fill: #6a3c21;
      }

      .cls-9 {
        fill: #efbda6;
      }

      .cls-10 {
        fill: #e79c05;
      }

      .cls-11 {
        fill: #d29593;
      }

      .cls-12 {
        fill: #f8c1cf;
      }

      .cls-13 {
        fill: #946d52;
      }

      .cls-14 {
        fill: #4d4d4d;
      }

      .cls-15 {
        fill: #bf8466;
      }

      .cls-16 {
        fill: #b68a75;
      }

      .cls-17 {
        fill: #f4bfae;
      }

      .cls-18 {
        fill: #e4a324;
      }

      .cls-19 {
        fill: #f6baab;
      }

      .cls-20 {
        fill: #5d331e;
      }

      .cls-21 {
        fill: #db9b9a;
      }

      .cls-22 {
        fill: #946c52;
      }

      .cls-23 {
        fill: #f8c0ce;
      }

      .cls-24 {
        fill: #f8bfce;
      }

      .cls-25 {
        fill: #744423;
      }

      .cls-26 {
        fill: #d29478;
      }

      .cls-27 {
        fill: #e6ac91;
      }

      .cls-28 {
        fill: #f5b4a6;
      }

      .cls-29 {
        fill: #535353;
      }

      .cls-30 {
        fill: #f8c4d1;
      }

      .cls-31 {
        fill: #754423;
      }

      .cls-32 {
        fill: #454545;
      }

      .cls-33 {
        fill: #e99c01;
      }

      .cls-34 {
        fill: #a246b1;
      }

      .cls-35 {
        fill: #f1c8b5;
      }

      .cls-36 {
        fill: #e79a82;
      }

      .cls-37 {
        fill: #edb59d;
      }

      .cls-38 {
        fill: #f7cfbb;
      }

      .cls-39 {
        fill: #f6c3b2;
      }

      .cls-40 {
        fill: #8b6348;
      }

      .cls-41 {
        fill: #c7bab5;
      }

      .cls-42 {
        fill: #bd856b;
      }

      .cls-43 {
        fill: #f5ccb7;
      }

      .cls-44 {
        fill: #e7a087;
      }

      .cls-45 {
        fill: #2e2c38;
      }

      .cls-46 {
        fill: #e6ab90;
      }

      .cls-47 {
        fill: #f28ca8;
      }

      .cls-48 {
        fill: #ad9a93;
      }

      .cls-49 {
        fill: #efc69b;
      }

      .cls-50 {
        fill: #2d2b37;
      }

      .cls-51 {
        fill: #f7b6c6;
      }

      .cls-52 {
        fill: #f5a89c;
      }

      .cls-53 {
        fill: #b68a73;
      }

      .cls-54 {
        fill: #f8bfcd;
      }

      .cls-55 {
        fill: #b67ab1;
      }

      .cls-56 {
        fill: #532c1c;
      }

      .cls-57 {
        fill: #f59d93;
      }

      .cls-58 {
        fill: #e29c0d;
      }

      .cls-59 {
        fill: #e68d78;
      }

      .cls-60 {
        fill: #ecc296;
      }

      .cls-61 {
        fill: #f49eb5;
      }

      .cls-62 {
        fill: #c48ccd;
      }

      .cls-63 {
        fill: #885e3b;
      }

      .cls-64 {
        fill: #e9bd90;
      }

      .cls-65 {
        fill: #3b261b;
      }

      .cls-66 {
        fill: #f0f0f0;
      }

      .cls-67 {
        fill: #5e341e;
      }

      .cls-68 {
        fill: #ab978f;
      }

      .cls-69 {
        fill: #744323;
      }

      .cls-70 {
        fill: #e3bca9;
      }

      .cls-71 {
        fill: #f6c4b3;
      }

      .cls-72 {
        fill: #fe3b8b;
      }

      .cls-73 {
        fill: #e78e79;
      }

      .cls-74 {
        fill: #f4bc97;
      }

      .cls-75 {
        fill: #e6947f;
      }

      .cls-76 {
        fill: #51301d;
      }

      .cls-77 {
        fill: #f6c9b7;
      }

      .cls-78 {
        fill: #eca10b;
      }

      .cls-79 {
        fill: #bcada7;
      }

      .cls-80 {
        fill: #e8a68b;
      }

      .cls-81 {
        fill: #e9be90;
      }

      .cls-82 {
        fill: #333;
      }

      .cls-83 {
        fill: #f6ccb8;
      }

      .cls-84 {
        fill: #794c3a;
      }

      .cls-85 {
        fill: #e7b8ab;
      }

      .cls-86 {
        fill: #895e4c;
      }

      .cls-87 {
        fill: #fdefe1;
      }

      .cls-88 {
        fill: #825536;
      }

      .cls-89 {
        fill: #f397b0;
      }

      .cls-90 {
        fill: #f5ac9f;
      }

      .cls-91 {
        fill: #efbea7;
      }

      .cls-92 {
        fill: #f0c89d;
      }

      .cls-93 {
        fill: #f28eaa;
      }

      .cls-94 {
        fill: #2d2b38;
      }

      .cls-95 {
        fill: #ecc399;
      }

      .cls-96 {
        fill: #6f4d3f;
      }

      .cls-97 {
        fill: #8a6f64;
      }

      .cls-98 {
        fill: #f6cfbc;
      }

      .cls-99 {
        fill: #eae9eb;
      }

      .cls-100 {
        fill: #a9948d;
      }

      .cls-101 {
        fill: #f28ca9;
      }

      .cls-102 {
        fill: #52a0d6;
      }

      .cls-103 {
        fill: #76493a;
      }

      .cls-104 {
        fill: #efeae8;
      }

      .cls-105 {
        fill: #e3aa8e;
      }

      .cls-106 {
        fill: #ecbfac;
      }

      .cls-107 {
        fill: #d28d00;
      }

      .cls-108 {
        fill: #f8d0a7;
      }

      .cls-109 {
        fill: #f0bfa8;
      }

      .cls-110 {
        fill: #552d1d;
      }

      .cls-111 {
        fill: #f8c3d0;
      }

      .cls-112 {
        fill: #f6beae;
      }

      .cls-113 {
        fill: #754525;
      }

      .cls-114 {
        fill: #b98e78;
      }

      .cls-115 {
        fill: #826559;
      }

      .cls-116 {
        fill: #f28da9;
      }

      .cls-117 {
        fill: #f5c28f;
      }

      .cls-118 {
        fill: #49372e;
      }

      .cls-119 {
        fill: #f8becd;
      }

      .cls-120 {
        fill: #3f2718;
      }

      .cls-121 {
        fill: #91786d;
      }

      .cls-122 {
        fill: #5f371e;
      }

      .cls-123 {
        fill: #f8c3d1;
      }

      .cls-124 {
        fill: #f5a398;
      }

      .cls-125 {
        fill: #61636f;
      }

      .cls-126 {
        fill: #f4b4a6;
      }

      .cls-127 {
        fill: #e8ae94;
      }

      .cls-128 {
        fill: #b58972;
      }

      .cls-129 {
        fill: #f6cfbb;
      }

      .cls-130 {
        fill: #e7967f;
      }

      .cls-131 {
        fill: #b38671;
      }

      .cls-132 {
        fill: #f0bea8;
      }

      .cls-133 {
        fill: #693b20;
      }

      .cls-134 {
        fill: #e6ac92;
      }

      .cls-135 {
        fill: #c29b89;
      }

      .cls-136 {
        fill: #f0c8b5;
      }

      .cls-137 {
        fill: #f5a4b9;
      }

      .cls-138 {
        fill: #ea9c00;
      }

      .cls-139 {
        fill: #60351f;
      }

      .cls-140 {
        fill: #efbda7;
      }

      .cls-141 {
        fill: #b06eaf;
      }

      .cls-142 {
        fill: #ebc297;
      }

      .cls-143 {
        fill: #eca10d;
      }

      .cls-144 {
        fill: #edbcaf;
      }

      .cls-145 {
        fill: #e79d07;
      }

      .cls-146 {
        fill: #4d2716;
      }

      .cls-147 {
        fill: #feb528;
      }

      .cls-148 {
        fill: #f2a610;
      }

      .cls-149 {
        fill: #eeb69e;
      }

      .cls-150 {
        fill: #e6ad93;
      }

      .cls-151 {
        fill: #e48470;
      }

      .cls-152 {
        fill: #4f3727;
      }

      .cls-153 {
        fill: #86a1c9;
      }

      .cls-154 {
        fill: #f8c4c8;
      }

      .cls-155 {
        fill: #f5a99d;
      }

      .cls-156 {
        fill: #e7be91;
      }

      .cls-157 {
        fill: #f6b8aa;
      }

      .cls-158 {
        fill: #64381f;
      }

      .cls-159 {
        fill: #5d606c;
      }

      .cls-160 {
        fill: #d86759;
      }

      .cls-161 {
        fill: #dd657c;
      }

      .cls-162 {
        fill: #542c1c;
      }

      .cls-163 {
        fill: #895e3b;
      }

      .cls-164 {
        fill: #e6bb8e;
      }

      .cls-165 {
        fill: #cda68c;
      }

      .cls-166 {
        fill: #f5aea1;
      }

      .cls-167 {
        fill: #e99d03;
      }

      .cls-168 {
        fill: #f4cab8;
      }

      .cls-169 {
        fill: #cca48b;
      }

      .cls-170 {
        fill: #e6ab91;
      }

      .cls-171 {
        fill: #643d2b;
      }

      .cls-172 {
        fill: #f0c0a9;
      }

      .cls-173 {
        fill: #f5b3a5;
      }

      .cls-174 {
        fill: #ee4d8a;
      }

      .cls-175 {
        fill: #946c51;
      }

      .cls-176 {
        fill: #72a0ce;
      }

      .cls-177 {
        fill: #331f14;
      }
    </style>
  </defs>
  <g id="Layer_1-2" data-name="Layer 1">
    <path class="cls-162" d="M22.52,109.45c-1.21-4.13-2.33-8.29-3.67-12.38-.77-2.34-1.79-4.62-3.38-6.58-1.29-1.83-2.49-3.73-3.82-5.53-.69-.94-1.18-1.9-.81-3.12.13-.41,0-.82-.17-1.21-1.76-4.06-2.43-8.35-2.82-12.72-.26-2.93-.25-5.84,0-8.62,0-.31-.25-.11-.09-.15.05-.01.1.12.1.2-.4,4.05-1.1,8.07-1.63,12.1-.21,1.57-.41,3.13-.7,4.69-.11.56-.09,1.17-.55,1.62-1.51-2.92-2.17-6.12-3-9.26-.83-3.12-1.31-6.32-1.71-9.52-.03-.26.11-.61-.28-.73v-1.25c.16-.17.16-.33,0-.5v-6c.2-.5.2-1,0-1.5v-1.5c.32-3.05.7-6.08,1.53-9.05,2.16-7.75,5.91-14.6,11.26-20.62,6.14-6.89,13.54-11.89,22.19-15.01,4.56-1.65,9.34-2.34,14.19-2.57.94-.05,1.9,0,2.82-.23h1c.25.19.5.19.75,0h7.25c.17.16.33.16.5,0h.75c1.38.56,2.88.51,4.31.81,5.43,1.16,10.36,3.52,15.22,6.09,3.75,1.99,7.49,3.98,10.45,7.14,4.62,4.94,7.36,10.86,8.98,17.3,2.99,11.92,4.35,24.02,3.6,36.33-.72,11.73-2.59,23.21-6.62,34.29-.5,1.36-.99,2.73-1.7,4-.25.05-.39-.02-.29-.31,1.93-6.82,3.22-13.75,3.9-20.8.19-2.03.29-4.07.42-6.1.17-1.15-.08-2.32.11-3.47.48-.74.19-1.45-.14-2.13-.28-.59-.37-1.17-.32-1.81.67-7.75-.02-15.37-2.32-22.81-.7-2.26-1.56-4.48-2.42-6.68-.17-.43-.38-.85-.4-1.15,1.15,3.59,2,7.42,2.74,11.27,1.49,7.67,2.04,15.41,1.79,23.2-.06,1.86-.39,3.71-.63,5.56-.37.86-.13,1.85-.56,2.59-.07.25.25.07.09.11.09-.72.29-1.42.3-2.16.43-1.94.64-3.92.98-5.87.04-.2.05-.42.11-.61.12-.4-.02-1.1.58-1.05.62.05.38.7.4,1.13-.48.81-.05,1.81-.55,2.61-.55,5.65-1.68,11.2-3.07,16.7-.67-.13-.31-.66-.34-.99-.14-1.54.21-3.11-.19-4.64-.15-.18-.23-.39-.27-.61-.13-2.3-.32-4.6-.66-6.89-.18-.67-.03-1.37-.24-2.03-.12-.51-.08-1.05-.25-1.55-.12-.5-.08-1.02-.25-1.51-.11-.56-.13-1.14-.36-1.68-.35-.73-.14-1.58-.45-2.32-.38-1.29-.48-2.64-.71-3.96,0-.08,0-.17-.01-.26,0,.12,0,.25,0,.37.18,1.7.04,3.41.09,5.12-.01.55.02,1.09-.09,1.63-.19.54-.17,1.1-.17,1.66-.03.37-.04.74-.38.98-.66-.26-.52-.86-.56-1.37-.07-.86.13-1.73-.13-2.58-.22-.94.02-1.92-.2-2.86-1.41-12.05-6.45-22.43-14.38-31.51-2.85-3.26-5.94-6.28-9.17-9.15-.75-.66-1.31-.62-2.04.03-4.53,3.98-8.89,8.14-13.01,12.54-5.43,5.82-10.29,12.09-14.39,18.93-.11.21-.22.43-.33.64-1.69,3.01-3.26,6.09-4.54,9.3-.21.39-.33.86-.84,1.02-.44-.24-.4-.67-.44-1.07.54-3.89,1.62-7.64,2.75-11.39,1.24-2.86,2.18-5.84,3.48-8.68,2.56-5.57,5.57-10.88,9.06-15.92,1.73-2.49,3.45-4.99,5.44-7.38-.32.18-.58.34-.9.3-.19-.04-.32-.16-.37-.35-.02-.47.29-.78.59-1.05,2.46-2.24,4.9-4.5,7.57-6.46-2.79.86-5.51,1.96-8.11,3.36-.29.16-.57.36-.9.44-.45.1-.66-.06-.49-.53.22-.61.68-1.04,1.11-1.49,1.61-1.68,3.4-3.19,4.84-5.16-5.53,1.26-10.34,3.78-14.63,7.32-5.26,4.35-9.44,9.6-12.95,15.42-.36.61-.81,1.16-1.09,1.82-1.45,2.85-2.95,5.68-4.37,8.55-1.99,4.81-3.89,9.65-5.35,14.66-.3,1.04-.48,2.42.28,2.9.7.44,1.6-.73,2.28-1.38.73-.7,1.21-1.58,1.55-2.54.15-.42.22-.88.64-1.17.59.38.49.97.48,1.48-.02,1.3.13,2.59.45,3.84.34,1.35.26,2.61-.15,3.92-1.44,4.66-2.53,9.4-3.11,14.26-.51,4.19-.58,8.38-.1,12.57.08.66.02,1.32.15,2.05-.17-1.8-.12-3.51.06-5.24.18-1.83.46-3.63.71-5.44.25-1.77.61-3.53.95-5.29.35-1.76.72-3.51,1.14-5.25.89-3.73,1.84-7.44,2.96-11.1.15-.48.18-1.3.81-1.18.5.1.25.87.2,1.35-.2,2.22-.41,4.44-.78,6.64.86-5.12,2.43-10.05,4.2-14.91,2.9-7.95,6.81-15.37,11.8-22.21.46-.63.82-1.37,1.56-1.75.13-.04.25-.03.37.05.22.51-.13.87-.36,1.25-2.32,3.73-4.02,7.75-5.44,11.89-.34.99-.68,1.96-1.2,2.87-.18.39-.37.78-.55,1.17-3,5.91-5.54,12.01-7.76,18.25-.2.51-.36,1.04-.53,1.56-.28.75-.51,1.51-.74,2.27-.24.85-.49,1.7-.75,2.55-.3,1.07-.58,2.14-.89,3.2-.36,1.24-.53,2.48-.26,3.75,0,.52-.27.94-.48,1.39-1.16,2.46-1.48,5.03-1.08,7.72.08.52.58,1.18-.25,1.59-.27-.53-.53-1.07-.88-1.77-.9,5.19-1.24,10.21-1.12,15.27-.09.08-.16.08-.23-.03Z"/>
    <path class="cls-131" d="M177.95,122.72c-4.08-.74-7.21-3.07-9.98-5.99-.51-.54-.98-1.12-1.54-1.77-.44,1.98-.86,3.85-1.28,5.73-1.02.48-2.1.13-3.15.17-.54.02-.56-.63-.61-1.08-.24-2.11-.59-4.2-1.25-6.23-.5-1.55-1.14-3.04-2.13-4.35-.44-.59-.77-.57-.96.2-.29,1.17-.68,2.32-1.12,3.44-.2.5-.25,1.4-.9,1.3-.57-.09-.53-.97-.58-1.52-.12-1.16-.34-2.3-.57-3.45-.15-.78-.4-1.52-.64-2.27-.57-.09-.76.37-1.02.64-2,2.14-4.45,3.6-7.08,4.8-.37.17-.83.48-1.14.09-.29-.37.07-.78.26-1.14.18-.33.44-.61.58-.96.01-.03-.01-.08-.03-.19-1.72.63-3.4,1.34-5.12,1.95-4.8,1.68-9.66,3.14-14.67,4.04-1.67.3-2.79,1.12-3.51,2.64-.64,1.36-.72,1.41-2.13.78-.89-.4-1.82.11-2.66-.35-.19-1.69-.39-3.38-.6-5.23-3.41,3.37-7.14,6.13-12.08,6.73,0-.23-.03-.33,0-.39,2.21-3.03,2.2-6.37,1.56-9.89-.56-3.07-.22-6.06,1.93-8.58,2.47-2.89,6.83-3.18,9.69-.65-.21.59-.78.84-1.19,1.25-1.32,1.32-1.86,4.14.13,6.04.36-1.89.74-3.71,1.38-5.45.32-.86.63-1.72,1.35-2.35,3.08-5.87,8.15-8.98,14.47-10.1,7.33-1.3,14.57-.68,21.6,1.79,4.66,1.64,8.05,4.72,9.98,9.32,1.2,1.8,1.3,3.9,1.55,5.95.07.57,0,1.16.24,1.72,1.87-1.03,2.19-4.05.66-5.85-.38-.45-1.04-.75-.93-1.51,2.58-1.44,5.21-1.8,7.74-.02,2.89,2.02,3.66,5,3.35,8.35-.23,2.47-1.38,4.79-1.15,7.35.15,1.64.51,3.19,1.51,4.53v.5Z"/>
    <path class="cls-170" d="M84.18,197.72c-4.79.72-9.53,1.7-14.29,2.63-5.08.99-10.07,2.45-15.25,2.87-.14.01-.27.15-.41.22h-1.5c-1.42-.21-2.83-.21-4.25,0h-1.5c-1.37-.85-2.98-.87-4.49-1.15-2.6-.47-5.23-.73-7.86-1.05-1.58-.19-3.05.77-4.65.47.02-.76.7-.94,1.15-1.32,1.88-.82,3.84-.64,5.78-.44,3.23.34,6.43.88,9.62,1.51,4.06.81,8.15.35,12.15-.44,6.21-1.22,12.38-2.61,18.61-3.75.41-.08.82-.16,1.24-.15,1.71.29,3.31-.23,4.9-.75.69.2.88.68.75,1.34Z"/>
    <path class="cls-106" d="M48.49,203.45c1.42-.41,2.83-.4,4.25,0h-4.25Z"/>
    <path class="cls-97" d="M0,48.99c.44.5.31,1,0,1.5v-1.5Z"/>
    <path class="cls-68" d="M53.74,0c-.25.32-.5.38-.75,0h.75Z"/>
    <path class="cls-48" d="M0,56.49c.29.17.34.33,0,.5v-.5Z"/>
    <path class="cls-100" d="M61.48,0c-.17.33-.33.29-.5,0h.5Z"/>
    <path class="cls-108" d="M116.73,119.23c1.2-.31,2.39-.38,3.46.38.55.39.62-.05.77-.37.45-.99.88-1.99,1.81-2.64,1-.7,2.19-.72,3.32-.96,6.44-1.36,12.68-3.37,18.76-5.87.21-.09.41-.3.84-.1-.55.89-1.1,1.76-1.79,2.87,3.78-1.51,6.84-3.55,9.36-6.62,1.03,2.7,1.37,5.39,1.74,8.27.88-1.87,1.45-3.65,1.88-5.45.22-.91.48-.82.97-.24,1.86,2.2,2.67,4.86,3.29,7.59.28,1.25.38,2.54.55,3.82.05.41.02,1.01.63.78.98-.39,1.89.07,2.82.03.24.88,1.16,1.27,1.47,2.13,1.03,2.84-.61,5.15-3.9,5.4-1.06.51-1.02,1.49-1.06,2.44-.66,5.58-5.68,7.83-9.92,8.31-1.6.18-3.19.49-4.81.52-.37,0-.74.11-.97.47.33.18.73.25.98.57.65,1.1.6,1.84-.23,2.94-1.07,1.43-2.62,1.97-4.29,2.24-2.72.44-5.55-.73-6.62-2.68-.47-.86-.63-1.71.09-2.53.23-.24.54-.36.82-.52.28-1.01-.67-.68-.96-.71-1.95-.2-3.84-.64-5.73-1.09-2.76-.66-5.41-1.52-7.57-3.54-1.62-1.51-2.28-3.41-2.68-5.48.12-.57-.14-1.13-.04-1.72.15-.81-.6-.59-1.02-.74-.72-.31-1.53-.27-2.23-.7-2.05-1.24-2.37-3.81-.68-5.77.3-.34.61-.67.91-1.01Z"/>
    <path class="cls-61" d="M136.71,139.99c-.17.16-.33.32-.5.48-1.26,1.06-1.42,2.11-.6,3.44.33.53.89.85,1.16,1.4,0,.09-.04.14-.13.14.12.08.19-.1.31-.07,1.53.51,3.04,1.08,4.7,1.01,1.09-.04,2.14-.26,3.12-.72,1.86-.86,3.16-2.11,2.82-4.4.21-.33.55-.29.87-.32.25.09.49.18.74.27.32.23.76.35.82.83-.04.35.34,0,.38.22,1.14,1.27,1.53,2.84,1.74,4.45.21,1.68.43,3.37.42,5.08,0,.5.01,1-.32,1.43.36,1.72.15,3.47.23,5.21.24,2.27.05,4.55.1,6.83.02.71-.55.79-1.03.82-1.61.08-3.17.6-4.76.69-1.61.09-3.23.31-4.83.25-2.97-.1-5.96,0-8.88-.77-.73-.2-1.56.1-2.34-.17-.31-.11-.65-.13-.88-.41-.55-1.82-.35-3.7-.21-5.53.2-2.6.11-5.2.22-7.79-.02-2.12-.1-4.24.31-6.34.09-.45.18-.9.4-1.3.22-.37.77-.54.68-1.11.39-1.28,1.19-2.17,2.47-2.6,1.03-.24,1.87-1.06,3-1.02Z"/>
    <path class="cls-72" d="M75.16,101.68c1.12-.8,1.45.42,2.1.82.37.22.76.41,1.02.78,1.74,2.63,2.46,5.6,2.71,8.67.11,1.28.5,2.31,1.31,3.24.52.59.98,1.23,1.45,1.86.73.71.78,1.67.98,2.59.07,1.25.37,2.49.35,3.75-.02.61-.08,1.22.12,1.82.09.4.1.8.1,1.2,0,.45,0,.91.14,1.34.09.39.09.78.14,1.17.08.47.2.93.22,1.4-.07.53.17,1.17-.53,1.47-.16-.04-.33-.11-.42-.25-1.91-2.83-4.96-3.04-7.92-3.47-3.03-.44-6.04-.13-9.04.33-.21.03-.41.03-.62-.04-.6-.31-.64-.93-.8-1.47-.37-1.32-.58-2.67-1.06-3.96-.31-.82-.69-1.33-1.82-1.17-2.03.28-2.08.16-2.24,2.3-.11,1.4-.02,2.82-.04,4.22-.02.93-.14,1.82-.87,2.5-1.91.89-3.62,2.2-5.65,2.86-.82-.63-1.66.3-2.49-.03-.53-1.85-1.39-3.58-.72-5.66.53-1.65,0-3.37-.51-5.01-.19-.59-.5-1.15-.56-1.78.05-.91.73-1.58.9-2.43.08-.29.19-.57.37-.81.29-.34.55-.71.66-1.15.25-.78.65-1.54.23-2.38-.14-.42-.22-.86-.35-1.28-.1-.37-.24-.72-.46-1.04-.06-.1-.1-.21-.13-.32-.8-2.56-2.09-4.81-4.15-6.59-.15-.5-.01-.91.36-1.26.34-.17.66-.06.98.09,2.29,1.74,3.41,4.24,4.46,6.79.38.92.65,1.89.96,2.84.21.63.57,1.07,1.24,1.28,6.96,2.09,13.86,2.13,20.64-.7,3.1-1.3,3.22-1.62,2.48-4.88-.51-2.26-1.25-4.41-2.9-6.12-.35-.45-1.07-.74-.65-1.51Z"/>
    <path class="cls-46" d="M48.75,104.22c-.23-.09-.47-.17-.7-.26-.34-.29-.26-.55.03-.82,2.02-.63,4.15-.93,6.04-1.98.68-.37,1.24-.83,1.49-1.6.19-.59.08-.96-.6-1.08-2.79-.47-5.55-1.11-8.33-1.63-2.62-.94-5.34-1.57-7.92-2.63-3.35-1.35-6.6-2.9-9.49-5.1-.5-.38-.97-.77-1.41-1.22-.68-.78-1.47-1.51-1.48-2.66.03-.26.12-.47.36-.59.35-.01.52.24.65.49,1.35,2.75,3.81,4.25,6.38,5.61.6.33,1.22.64,1.84.93.46.22.95.35,1.4.58.34.18.69.35,1.06.46.31.11.63.21.95.31.42.15.85.29,1.28.43.32.11.65.22.98.31.34.11.69.17,1.04.26.49.16.98.33,1.48.43,3.82.86,7.63,1.75,11.51,2.34,5.7.87,11.37.62,17.02-.37,2.63-.46,5.26-.88,7.85-1.52.39-.05.77-.17,1.15-.25.54-.09,1.04-.29,1.56-.46.34-.11.67-.21,1.02-.29.34-.07.67-.17,1-.25.44-.09.88-.23,1.29-.42.47-.21.96-.38,1.45-.54.5-.15.96-.39,1.44-.57.7-.27,1.37-.6,2.04-.92,1.6-.75,3.06-1.75,4.5-2.77.32-.23.57-.63,1.06-.49.02.16.04.32.07.48.09.13.06.23-.08.3-6.55,4.97-14.24,7.09-22.11,8.72-.73.15-1.46.29-2.19.41-.58.1-.68.32-.32.81.86,1.18,1.78,2.3,3.11,2.98-.11.67.58.84.81,1.31-.66.26-1.02.77-1.36,1.37-1.7,3-4.09,5.25-7.46,6.25-2.77.83-5.51.58-8.17-.55-2.56-1.09-4.84-2.62-6.78-4.59-1.01-1.02-1.98-1.72-3.46-1.26Z"/>
    <path class="cls-108" d="M130.97,144.46c-.94,2.52-.71,5.16-.77,7.77-1.99,2.53-4.26,4.77-6.86,6.66-1.89,1.37-3.85,2.62-5.99,3.58-.48.21-.87.49-1.03,1.01-.16.24-.37.45-.58.65-1.34,1.18-2.6,2.43-3.96,3.59-.22.19-.41.41-.64.59-.53.42-1.13.6-1.72.2-.65-.44-.36-1.01-.07-1.54-.85.41-1.75,1-2.54.08-.67-.79.17-1.3.64-1.83-.47.33-.98.47-1.52.49-.59-.08-1.02-.39-1.11-.99-.1-.63.35-.97.79-1.3.43-.32.89-.57,1.47-.86-.72-.09-1.34,0-1.9-.31-.22-.12-.42-.26-.55-.48-.08-.18-.09-.36-.04-.55.12-.29.34-.51.57-.71.38-.31.87-.36,1.31-.51,1.01-.22,1.99-.54,2.93-.98.15-.07.15-.08.05-.28-.69-.34-1.25-.82-1.46-1.59-.13-.49-.11-1,.29-1.39.42-.41.91-.36,1.38-.12.97.49,2,.76,3.09.8.93.51,1.72.52,2.76-.05,4.75-2.59,8.21-6.51,11.48-10.67,1.09-1.39,2.11-2.89,3.69-3.83.94-.56,1.93-.94,3.05-.89-.89.79-1.93,1.46-2.27,2.71-.08.3-.16.6-.48.75Z"/>
    <path class="cls-170" d="M60.28,130.63c.57-.67.7-1.47.72-2.31.04-1.9-.12-3.81.23-5.7.24-1.33.58-1.57,1.9-1.16.11.04.23.11.34.1,1.79-.04,2.05.13,2.51,1.86.43,1.59.84,3.19,1.26,4.78.69.65,1.11,1.49,1.3,2.37.43,1.96,1.59,3.53,2.48,5.25.31.6.76.81,1.43.69,3.56-.64,7.1-1.29,10.14-3.46.82-.58,1.75-.93,2.75-1.11.25-.07.48-.23.74-.26,1.44-.2,2.88-.35,4.34-.05.9.19,1.79.4,2.61.82.49.25,1.26.49.95,1.22-.33.79-.98.3-1.49.08-3.26-1.38-6.46-1.2-9.43.69-3.41,2.16-7.21,2.95-11.09,3.57-.84.13-1.41-.21-1.84-.96-1.26-2.2-2.72-4.31-3.18-6.89.03.31.12.61.1.91-.15,2.35.23,4.65.56,6.95.3,2.07,0,4.06-.53,6.04-.3,1.14,0,1.62,1.18,1.5,4.12-.4,8.24-.05,12.36-.2,4.93-.18,9.79-.75,14.45-2.49,2.42-.9,3.32-2.27,2.96-4.88-.52-3.79-1.74-7.33-3.35-10.8-1.94-4.15-3.2-8.58-5.04-12.78-1.09-2.48-2.26-4.92-3.95-7.07-1.74-2.21-3.78-3.88-6.8-3.81-.34,0-.65-.14-.94-.31-.23-.24-.46-.49-.69-.73,5.93-.74,8.95,3.01,11.45,7.49,2.43,4.37,3.99,9.12,5.72,13.79,1.04,2.81,2.46,5.45,3.48,8.26.78,2.16,1.3,4.37,1.56,6.64.02.29.06.58-.02.87-.08.35-.15.7-.2,1.06-.29,2.02-1.73,2.92-3.46,3.54-.59.21-1.2.35-1.79.55-.44.13-.88.29-1.32.43-3.79,1.19-7.71,1.48-11.65,1.63-.32-.05-.65-.09-.98-.01-1.19.26-2.36-.15-3.55-.02-.2.05-.4.08-.61.09-2.49.12-4.99-.17-7.48.23-.08.01-.18.03-.25,0-2.82-1.05-5.4.57-8.12.74-1.4.09-2.78.53-4.14.89-.19.05-.39.09-.59.11-.69.1-1.37.24-2.04.4-.18.06-.37.1-.55.13-1.11.29-2.23.53-3.35.74-.73.17-1.49.2-2.22.34-.12.04-.25.07-.37.09-.7.11-1.43-.02-2.11.23-.67.13-1.36.09-2.02.27-.72.07-1.46.26-2.1-.27-3.38.5-6.8.11-10.19.46-3.53.36-6.26-2.28-6.35-5.83-.08-3.4.87-6.61,2.22-9.64,2.41-5.4,4.19-11.02,6.32-16.51.54-1.39,1.13-2.77,1.69-4.15.59-.19.68.26.56.59-.35,1.01-.31,2.12-.81,3.09-.82,1.37-1.22,2.92-1.74,4.4-1.64,4.72-3.48,9.36-5.38,13.98-1.05,2.54-1.78,5.2-1.75,8,.01,1.31.46,2.45,1.27,3.45.71.87,1.61,1.43,2.81,1.36,2-.12,4-.04,5.99-.06,6.39-.04,12.7-.78,18.92-2.28,2.91-.7,5.83-1.41,8.81-1.75,1.57-.18,2.53-.98,2.9-2.48.43-1.74.87-3.53.43-5.3-.71-2.86-.46-5.8-.83-8.68-.18-1.45-.53-2.86-.68-4.21-.04.39.16.86.1,1.35-.07.48-.03,1.1-.74,1.09-.62-.01-.63-.58-.67-1.02-.07-.7.02-1.42-.14-2.12-.12-.56-.18-1.15-.65-1.66-.54.4-.52.97-.5,1.47.09,2.67-.15,5.31-.55,7.95-.32,2.11-1,4.12-1.75,6.11-.25.66-.83.88-1.48.97-4.71.64-9.44.93-14.19.78-1.01-.03-1.98-.24-2.93-.58-3.44-1.24-6.62-.72-9.56,1.43-.43.31-.96.8-1.41.23-.48-.61.09-1.09.56-1.44,2.48-1.86,5.29-2.53,8.35-2.28,1.51.18,2.88.91,4.37,1.18,3.44.29,6.86,0,10.28-.26,1.27-.12,2.53-.27,3.8-.44.72-.09,1.07-.48,1.27-1.15.59-2.01,1.31-4,1.41-6.12Z"/>
    <path class="cls-147" d="M93.96,144.44c.76-.29,1.5-.63,2.28-.85,1.61-.46,2.44-1.56,2.76-3.14.76-.53,1.52-.26,2.25.07,1.75.8,3.03,2.17,4.27,3.58.25.28.39.65.73.84,1.21,1.85,2.25,3.79,3.19,5.78.65,1.77,1.64,3.38,2.46,5.07.11.22.33.37.61.37.08.1.15.19.23.29-1.06.54-2.01.09-2.93-.36-.5-.24-1-.64-1.42-.05-.36.5-.29,1.14.15,1.61.36.39.83.68,1.24,1.01-.76.81-1.9.81-2.82,1.29-.16.09-.42.02-.46.29-.43.15-.86.3-1.29.44-.5.05-.88-.21-1.26-.47-4.37-2.98-7.16-7.1-8.7-12.12-.06-.2-.07-.41-.04-.63-.25.67-.51,1.33-.93,1.9-.18.25-.41.62-.76.14-.38-1.74-.13-3.43.43-5.09Z"/>
    <path class="cls-51" d="M166.49,102.02c.42.46.84.91,1.26,1.37,1.73,1.88,1.05,5.83-1.3,6.72-.25-2.86-.56-5.68-1.48-8.38.51.1,1.02.2,1.52.3Z"/>
    <path class="cls-51" d="M118.91,100.7c-1.32,2.62-2.04,5.43-2.49,8.44-1.43-.94-1.94-2.3-1.9-3.77.05-1.86.95-3.33,2.71-4.16.56-.17,1.12-.34,1.68-.51Z"/>
    <path class="cls-10" d="M106.25,144.94c-.33.29-.4-.05-.53-.22-1.02-1.31-2.22-2.44-3.57-3.39-.93-.65-1.97-1.03-3.14-.88-.05-.33,0-.64.19-.92.49-.52,1.01-.26,1.52-.05,2.32,1.34,4.25,3.07,5.54,5.45Z"/>
    <path class="cls-78" d="M112.51,156.16c-.26.34-.59.41-.78,0-.83-1.74-1.63-3.51-2.42-5.27-.02-.03.09-.12.14-.19,1.13,1.75,2.15,3.57,3.06,5.44Z"/>
    <path class="cls-114" d="M118.73,126.71c1.41-.45,1.52-.38,1.29,1.03-.08.48.15,1.01-.24,1.43-.35-.82-.7-1.64-1.05-2.46Z"/>
    <path class="cls-121" d="M96.68,88.76c.03-.1.05-.2.08-.3.46,1.39.14,2.83.25,4.24.04.51-.23,1.06.19,1.52.09.47-.19.83-.39,1.23-.08-2.24.07-4.47-.13-6.69Z"/>
    <path class="cls-41" d="M100.27,77.51c.04-.85.02-1.72.45-2.5.07.03.1.07.09.12,0,.06-.02.08-.04.08-.11,1.18.09,2.39-.26,3.55-.19-.4.09-.89-.24-1.26Z"/>
    <path class="cls-29" d="M100.71,139.49c-.51.02-1.01.03-1.52.05-.03-.33-.12-.67.28-.86.39.32,1.01.26,1.25.81Z"/>
    <path class="cls-115" d="M96.19,106.72c-.13.27-.1.65-.59.78-.02-.44.09-.78.33-1.09.17.03.19.18.26.3Z"/>
    <path class="cls-96" d="M96.19,106.72c-.09-.1-.17-.2-.26-.3.02-.27,0-.55.25-.75.1.1.19.2.29.31.04.3-.15.51-.29.74Z"/>
    <path class="cls-14" d="M33.54,187.93c-.78-3.02-.65-6.01.18-9,2.05-5.68,6.3-9.6,10.73-13.38.08-.09.17-.17.26-.24.56-.3.89-1,1.65-.95.94.92,1.25,2.21,1.92,3.3.95,1.56,1.86,3.14,2.98,4.67-.14-2.31.67-4.27,1.78-6.16,1.56-2.66,3-5.37,3.53-8.45.03-.2.15-.39.26-.56.64-.81,1.57-1.22,2.43-1.72,1.62-.94,3.23-1.9,4.89-2.77.38-.2.86-.68,1.22.08-.38,2.24-.84,4.47-1.07,6.73-.44,4.32-.24,8.58.61,12.84.49,2.43.81,4.89.58,7.39-.51.88-1.46,1.17-2.27,1.62-2.2,1.22-4.58,2.06-6.83,3.18-1.03.24-1.49-.81-2.33-1.01-.11-.04-.21-.08-.32-.13-.83-.27-1.66-.45-2.51-.12-1.36.2-2.4,1.03-3.47,1.8-.97.69-1.92,1.43-3.04,1.88-.42.17-.85.33-1.32.19-1.25-.45-2.6-.44-3.88-.82-1.97-.59-3.62-1.63-4.97-3.17-.33-.37-.64-.75-.56-1.3-.45,1.98.07,3.94.18,5.91-.13.27-.3.46-.62.22Z"/>
    <path class="cls-162" d="M33.77,118.47c.31-.95.31-1.98.75-2.9.14-.28-.03-.45-.3-.53-.28-.18-.54-.38-.83-.55-5.27-3.11-4.98-8.54-2.68-12.36.17.13.24.31.25.52-.27,1.55-.93,3-.92,4.63.02,2.59.96,4.6,3.14,6.01.28.18.54.38.81.58-2.3-1.56-3.17-3.77-3.1-6.48.07-2.57.53-4.97,2.53-6.96-.83-.51-1.7-.85-2.49-1.34-2.11-1.31-3.32-3.22-3.81-5.61-.34-1.65-.35-3.31,0-4.96.09-.43.09-1.09.89-.83,3.12,2.88,6.92,4.6,10.76,6.24.84,2.87,1.02,5.8.66,8.76-.09.71.3,1.19.79,1.6,3.71,3.08,5.24,6.96,4.4,11.75-.12.71-.07,1.44.4,2.03,2.13,2.68,2.24,5.74,1.55,8.89-.26,1.18-.12,2.15.47,3.19,1.17,2.07,1.19,4.28.53,6.53-.11.36-.25.71-.59.92-.91.35-1.78.14-2.63-.2-.66-.95-.92-2.2-2.09-2.76-.35-.41-.68-.84-1-1.28-1.65-2.25-1.5-3.89.68-5.59.72-.57.73-.81-.04-1.26-1.34-.77-2.5-1.8-3.67-2.8-1.73-1.49-2.44-3.42-2.31-5.68.02-.33.09-.66.05-1,.03.45-.09.88-.2,1.3-.49,1.86-.2,3.55,1.14,4.99.23.24.44.5.46.87-.01.14-.07.25-.17.34-1.16.1-1.65-.87-2.21-1.55-1.05-1.29-1.84-2.74-1.24-4.53Z"/>
    <path class="cls-177" d="M4.99,77.75c.34-2.53.64-5.08,1.04-7.6.6-3.78.98-7.6,1.97-11.36,0,.44,0,.89,0,1.33-.11,5.02.14,10.01,1.25,14.93.42,1.86.92,3.7,1.74,5.43.19.4.52.78.27,1.28-.65,1.28.1,2.19.78,3.16,1.15,1.62,2.26,3.28,3.37,4.93.12.18.34.41.06.65-4.02-3.82-7.94-7.71-10.49-12.74Z"/>
    <path class="cls-25" d="M28.03,87.71c-.9.26-.66,1.14-.71,1.67-.3,2.92,0,5.76,2.08,8.07,1.24,1.38,2.91,2.16,4.73,2.83-2.35,1.92-2.79,4.49-2.9,7.26-.13,3.02,1.33,5.1,3.85,6.87-3.35-.95-5.26-3.48-5.34-6.6-.05-1.79.34-3.45,1.02-5.08q.54-1.58-1.5-2.26c-1.87-1.12-3.56-2.42-4.49-4.48.25-1.26-.35-2.45-.29-3.72.09-2.22.47-4.32,1.6-6.26.14-.24.15-.55.22-.82.1-.07.16-.05.19.07.18,1.03,1,1.66,1.55,2.46Z"/>
    <path class="cls-82" d="M44.73,165.71c-3.38,2.8-6.54,5.8-8.92,9.54-.64,1.01-1.18,2.08-1.61,3.2-.08.19-.01.64-.48.49.52-3.29,1.69-6.39,2.88-9.47,1.19-3.08,2.47-6.13,4.05-9.04,1.11.12.92,1.29,1.5,1.84.71,1.25,1.67,2.33,2.58,3.44Z"/>
    <path class="cls-27" d="M43.48,186.92c1.63-.25,2.86-1.25,4.13-2.18,1.1-.81,2.18-1.68,3.63-1.79.09.13.08.25,0,.37-1.65.8-3.08,1.92-4.52,3.04-2.08,1.62-4.59,1.87-7.09,1.91-2.3.03-4.56.05-6.63,1.27-.64.37-1.47.26-2.14.62-.51.21-.87.61-1.23,1.01-.6.8-1.06,1.68-1.5,2.56-.41.83-.24,1.47.63,1.97,1.34.78,1.32.81-.08,1.61-.96.55-1.38,1.74-1.03,2.79.22.66.76.68,1.29.76.37.25.64.55.53,1.04-.95.44-1.82.49-2.59-.38-.84-.96-1.1-2.65-.34-3.83.53-.82,1.03-1.49.21-2.39-.14-.15-.15-.47-.14-.71.1-1.92,2.62-5.22,4.45-5.76.86-.25,1.83-.13,2.5-.91.15-.06.31-.13.46-.19.58-.68,1.41-.64,2.18-.73,2.43-.29,4.86-.23,7.3-.08Z"/>
    <path class="cls-69" d="M40.53,150.72c.73-.01,1.46-.03,2.19-.04.3.33.2.7.09,1.05-.92,2.95-.9,5.93-.34,8.94.04.2.04.41,0,.62-.05.21-.14.4-.36.48-1.06-.74-1.2-1.97-1.61-3.06-.07-.59-.29-1.16-.28-1.76-.15-.8-.14-1.61-.1-2.41.11-1.19.44-2.36.42-3.56,0-.08-.01-.17-.02-.25Z"/>
    <path class="cls-140" d="M29.46,201.9c-.15-.32-.51-.54-.47-.95-.51-.44-.85-1.02-.4-1.59.45-.57,1.23-.8,1.88-.46.66.35.87,1.04.52,1.79-.17.51-.72.64-1,1.03-.13.19-.32.21-.53.18Z"/>
    <path class="cls-65" d="M40.72,158.71c.24,1.07.77,2.03,1.28,2.99.18.11.33.24.32.48-.06.16-.17.25-.33.28-.64-.55-.62-1.53-1.33-2.04.19-.64-.3-1.13-.37-1.71.15-.15.29-.15.44,0Z"/>
    <path class="cls-171" d="M29.24,100.46c.88-.27,1.55.28,2.02.79.44.48-.18,1.02-.52,1.47-.01-.2-.02-.39-.04-.59.05-.37.32-.76-.32-.96-.42-.13-.77-.47-1.15-.72Z"/>
    <path class="cls-152" d="M40.55,150.97c.27,1.2-.03,2.35-.31,3.49-.23-.2-.04-.52-.2-.74.17-.92.34-1.84.51-2.75Z"/>
    <path class="cls-118" d="M40.04,153.72c.25.2.19.48.2.74,0,.84-.03,1.69.23,2.5-.14.14-.28.15-.43,0,0-1.08,0-2.16,0-3.24Z"/>
    <path class="cls-120" d="M40.04,156.97c.14,0,.28,0,.43,0,.08.58.17,1.17.25,1.75-.15,0-.29,0-.44,0,.05-.6-.44-1.13-.24-1.75Z"/>
    <path class="cls-79" d="M22.52,109.45c.07.02.15.03.23.03.19.12.23.3.17.51-.01.04-.14.08-.18.06-.25-.12-.28-.34-.22-.59Z"/>
    <path class="cls-31" d="M52.74,28.25c.52-.29,1.05-.58,1.86-1.04-1.62,2.18-3.06,4.07-4.45,6-4.21,5.82-7.87,11.96-10.82,18.53-1.22,2.71-2.09,5.57-3.36,8.25-.36-.4-.22-.85-.12-1.29.37-1.6.73-3.21,1.42-4.72.16-.49.52-.91.49-1.46,2.12-5.34,3.84-10.87,7.15-15.67.06-.09.06-.24.08-.36.05-.06.1-.13.14-.19-.05.06-.09.13-.14.19-1.9,1.94-3.28,4.26-4.74,6.52-4.06,6.32-7.2,13.1-9.59,20.21-1.4,4.16-2.63,8.38-3.43,12.71-.02.11-.09.21-.23.52-.09-3.16.44-6.05.59-8.98-3.21,11.13-6.25,22.29-6.43,34.04-.58-.95-.51-2.03-.62-3.02-.58-5.26-.28-10.49.62-15.71.7-4.05,1.71-8.02,2.92-11.94.15-.5.26-1,.13-1.47-.57-2.09-.79-4.21-.79-6.4-.61,2.35-1.95,4.08-4.04,5.27-.75.43-.95.6-1.19-.52-.48-2.29.46-4.25,1.12-6.26,1.27-3.9,2.74-7.74,4.4-11.49,1.9,1.34,3.94,2.49,5.54,4.22.58.63.99.46,1.29-.25.52-1.23,1.07-2.44,1.7-3.61.19-.36.34-.77.79-.91.2.03.31.15.38.34-.15,1.68-.95,3.17-1.39,4.76-.14.51-.35,1-.47,1.52,3.39-6.09,6.67-12.23,10.11-18.54-3.59,1.84-7.08,3.27-10.85,3.9-.91.15-1.84.57-2.79.12,3.38-5.75,7.26-11.11,12.2-15.65,4.86-4.47,10.42-7.65,16.9-9.11.11-.03.24.01.48.03-1.84,2.77-4.62,4.62-6.44,7.31,3.23-1.72,6.56-3.12,10.13-4.01-2.98,2.6-6.13,4.98-8.81,7.89-.1.45-.58.62-.79.99.22-.42.65-.55,1.04-.73Z"/>
    <path class="cls-80" d="M38.78,61.47c3.06-5.21,6.62-10.07,10.53-14.67,5.27-6.2,11.09-11.85,17.22-17.19.51-.45.92-.86,1.67-.22,9.05,7.73,16.56,16.62,20.88,27.89,1.63,4.24,2.84,8.6,3.17,13.16.23.47.08.85-.3,1.17-.23.18-.49.31-.77.4-.35.12-.74.3-1.07.02-.37-.31-.1-.7,0-1.03.2-.62.29-1.21-.12-1.86-.41.41-.54,1.11-1.21,1.23-.12,0-.23-.03-.34-.09-.36-.48-.31-1.13-.68-1.61-.1-.16-.16-.33-.19-.51-.42-1.86-1.16-3.61-1.71-5.43-.15-.5-.46-.99-.18-1.55.95-.51,1.69.08,2.45.48.07,0,.08.18.15.09.11-.12.03.08-.08-.06-.91-.66-1.9-1.11-2.99-1.36-1-1.16-1.32-2.66-1.95-4.01-2.51-5.3-5.62-10.19-9.67-14.46-1.49-1.57-3.06-3.05-4.6-4.57-1.02-1-1.19-1-2.29-.1-3.26,2.65-6.41,5.43-9.44,8.34-2.97,2.85-5.9,5.74-8.74,8.72-1.9,1.98-3.6,4.14-5.51,6.11-.11.06-.23.1-.35.13-1.16.03-2.29.13-3.2.97-.18.16-.45.2-.67,0Z"/>
    <path class="cls-13" d="M33,49.5c-.77,1.61-1.56,3.2-2.29,4.82-.39.86-.74,1.1-1.47.29-1.28-1.42-2.83-2.52-4.46-3.53-.43-.26-1.04-.42-1.06-1.11,1.44-2.82,2.87-5.64,4.31-8.46,4.97-.52,9.58-2.16,14.15-4.33-3.55,6.55-7.09,13.09-10.66,19.68-.68-.44-.3-.93-.17-1.33.61-1.94,1.27-3.86,1.91-5.79.14-.24.02-.54.12-.67-.05.09-.14.31-.37.42Z"/>
    <path class="cls-31" d="M83.23,16.5c-3.22-.81-6.48-1.24-9.8-.86-1.68.2-3.36.4-5.05.6-.56.07-.78-.33-1.05-.72-1.92-2.81-3.87-5.6-5.78-8.41-1.18-1.74-2.8-3.04-4.29-4.47-.35-.34-.78-.64-.87-1.3.95.22,1.84.42,2.6,1.02.23.18.59.34.57.62-.11,1.56,1.02,1.13,1.88,1.31,2.01.43,4.16-.19,6.24.79-.86.8-2.01.76-3.13,1.73,3.85.38,7.45.05,11.05,1.01-.76.34-1.4.44-2.08.45-.74,0-1.48-.06-2.23.16-.68.2-1.34.36-1.87.98,2.76-.47,5.47-.06,8.15.4,2.64.46,5.4.76,7.47,2.84-3.95-.53-7.87-1.23-11.79.07-.75.25-1.45.59-2.11,1.19,5.58-.37,10.9.49,15.8,3.36-.59-.13-1.18-.28-1.77-.4-.65-.13-1.27-.42-1.95-.36h0Z"/>
    <path class="cls-31" d="M21.76,36.75c2.54-3.96,5.38-7.66,8.78-10.93,5.49-5.3,11.97-8.67,19.47-10.07.4-.07.8-.15,1.45-.27-.83.69-1.66.77-2.38,1.06-3.99,1.66-7.46,4.1-10.71,6.91-5,4.32-9.05,9.44-12.84,14.8-1.34-.28-2.63-.73-3.78-1.5Z"/>
    <path class="cls-31" d="M79.23,21.25c-1.32-.9-2.77-1.56-4.23-2.17,6.6.6,11.44,4.28,15.7,8.96-.2.93-.58,1.74-1.47,2.2-.33-.17-.58-.42-.75-.75-.32-.1-.53-.34-.59-.43.08.1.23.38.34.68.25.42.49.85.74,1.27-1,1.11-1.85,2.4-3.46,2.73-.93-1.3-1.85-2.61-2.8-3.9-2.49-3.38-5.21-6.54-8.93-8.65-.74-.42-1.53-.74-2.44-1.17,2.8-.16,5.21.73,7.65,1.48.17.15.48.01.63.34-.07-.29-.31-.39-.37-.6Z"/>
    <path class="cls-31" d="M83.23,16.49c-.27.57.21.65.54.71,6.18,1.26,10.24,5.29,13.48,10.36,2.25,3.51,3.43,7.43,4.19,11.49.04.22,0,.46-.08.73-2.62-4.87-5.36-9.64-9.32-13.56-3.98-3.93-8.81-6.53-14.27-8.59,1-.73,1.72-.89,2.51-.89.99,0,1.99.09,2.96-.24,0,0,0,0,0,0Z"/>
    <path class="cls-31" d="M35.26,8.12c-4.38,2.4-8.25,5.44-11.61,9.12-3.23,3.53-5.95,7.45-8.42,11.54-.89,1.48-1.37,1.72-2.99,1.42-1.83-.34-1.87-.36-.96-2.02,4.99-9.05,12.11-15.71,21.85-19.43.68-.26,1.33-.66,2.12-.63Z"/>
    <path class="cls-31" d="M39.99,14.74c-5.54,3.04-10.11,7.2-13.96,12.18-2.08,2.69-3.99,5.51-5.75,8.42-.28.46-.51.93-.77,1.4-1.37.2-2.71.08-3.99-.48,1.53-2.75,3.1-5.47,5.02-7.98,4.69-6.11,10.63-10.51,17.81-13.27.53-.2,1.02-.59,1.64-.52.07.06.1.11.07.17-.02.05-.05.08-.07.08Z"/>
    <path class="cls-25" d="M61.49,25.25c-2.15,3.1-4.28,6.21-6.45,9.29-3.22,4.58-6.47,9.14-9.7,13.7-1.72,2.43-3.44,4.87-5.27,7.22,3.84-12.38,11.92-21.83,21.17-30.47.24-.07.32.02.25.25Z"/>
    <path class="cls-25" d="M23.74,45.74c-2.04,5.66-4.23,11.27-6.05,17.01-1.69,5.34-3.25,10.71-4.13,16.24-.3,1.87-.48,3.79-.38,5.71-.53-1.56-.85-3.14-.94-4.78-.38-6.69,1.24-13.01,3.63-19.17,1.96-5.05,4.43-9.85,7.13-14.54.2-.36.49-.67.73-1,.14.17.15.34,0,.51Z"/>
    <path class="cls-31" d="M80.22,36.74c-3.51-5.5-7.37-10.73-12.03-15.34,7.47,1.9,12.39,6.85,16.03,13.36-.43.83-1.32.91-2.05,1.23-.63.28-1.29.53-1.95.75Z"/>
    <path class="cls-13" d="M85.5,33.74c1.35-.67,2.14-2.03,3.46-2.73,2.43,4.05,4.21,8.36,5.27,12.96.13.2-.01.3-.14.4-.5.83-.53,1.83-.95,2.69-.17.35-.2.98-.89.65-1.72-4.65-3.92-9.06-6.47-13.3-.12-.21-.18-.45-.27-.67Z"/>
    <path class="cls-25" d="M100.77,75.22c-.04-.06-.06-.13-.05-.21-.05-.37.17-.83-.4-1.11-.36,2.57-.77,5.09-1.35,7.57-.47.03-.4-.22-.25-.5.31-3.93.6-7.85.52-11.8-.13-6.3-.9-12.53-2.13-18.7-.72-3.61-1.67-7.15-2.53-10.74.72.98,1.18,2.08,1.63,3.2,2.26,5.6,3.78,11.36,4.31,17.4.29,3.29.11,6.56.19,9.83.02.82-.61,1.79-.15,2.42.56.76.31,1.46.39,2.18.02.14-.12.3-.18.45Z"/>
    <path class="cls-22" d="M80.22,36.74c.03-.59.57-.52.91-.68,1.02-.46,2.05-.87,3.08-1.31,2.47,4.15,4.12,8.64,5.53,13.23.28.59,0,.94-.53,1.12-.56.19-1.08.59-1.74.38-1.23-2.3-2.47-4.6-3.69-6.91-1.07-2.02-2.27-3.96-3.56-5.85Z"/>
    <path class="cls-80" d="M37.52,53.76c-.5,2.08-1.28,4.09-1.54,6.22-1,3.8-2.14,7.57-2.76,11.47-.21.41-.07.84-.05,1.26-.09.43-.09.86-.16,1.29-.14.44-.34.7-.8.31-.28-.98-1.13-1.18-1.94-1.46-.41-.14-1.06-.15-.78-.91.61-2.33,1.58-4.54,2.47-6.77,1.58-3.98,3.35-7.88,5.31-11.69.23-.06.35,0,.26.26Z"/>
    <path class="cls-57" d="M96.7,87.98c-1.68,1.39-3.45,2.64-5.47,3.49-.73-.11-.54-.72-.57-1.15-.22-3.67,1.37-6.48,4.23-8.65.36-.27.69-.6,1.12-.77.48,2.34.69,4.7.69,7.08Z"/>
    <path class="cls-22" d="M21.76,36.75c1.32.34,2.63.72,3.78,1.5-1.53,2.52-3.06,5.04-4.6,7.56-.1.17-.29.28-.44.42-1.08-.34-2.3-.47-2.79-1.75,1.07-2.72,2.47-5.28,4.05-7.74Z"/>
    <path class="cls-25" d="M17.71,44.49c.71.93,1.99.96,2.79,1.75-1.01,1.95-2.02,3.89-3.04,5.84-1.65,3.16-3.21,6.36-4.53,9.87-.12-2.81,2.34-12.06,4.78-17.45Z"/>
    <path class="cls-175" d="M89.22,30.24c.49-.73.98-1.47,1.47-2.2,3.78,3.9,6.4,8.45,7.76,13.71-2.92-3.98-5.98-7.82-9.24-11.51Z"/>
    <path class="cls-22" d="M15.51,36.26c1.35-.02,2.68.14,3.99.48-1.18,2.4-2.35,4.81-3.53,7.21-1.19.29-2.29.15-3.22-.72.66-2.43,1.57-4.76,2.76-6.98Z"/>
    <path class="cls-25" d="M12.75,43.24c1.07.24,2.15.48,3.22.72-2.21,4.5-3.91,9.19-5.33,14.01.1-5,.57-9.94,2.11-14.73Z"/>
    <path class="cls-52" d="M89.23,92.48l-1.5.5c-.77-.97-.61-2.13-.58-3.23.11-3.31,1.24-6.24,3.42-8.74.56-.23.59.23.72.55.39-1.07.45-2.23.85-3.3.84,0,.55.64.6,1.08.02.17.05.25.04.09,0-.03.13-.08.19-.14.86-.63,1.91-.99,2.55-1.9.26.48.22,1.01.23,1.53.34.76-.22.99-.72,1.32-2.78,1.87-4.82,4.27-5.37,7.7-.16.99-.07,1.98-.09,2.97-.01.54.01,1.08-.34,1.55Z"/>
    <path class="cls-124" d="M89.23,92.48c.11-1.69-.15-3.37.2-5.07.71-3.44,2.83-5.79,5.68-7.58.4-.25.66-.43.63-.9.35.62.22,1.31.27,1.98-.02.61-.51.78-.94,1.04-2.87,1.71-4.74,6.08-4.01,9.35.02.07.1.12.16.18l-2,1Z"/>
    <path class="cls-25" d="M87.47,49.49c.53-.22,1.05-.48,1.59-.65.45-.14.73-.34.68-.85,1.56,5.31,2.71,10.7,3.17,16.24-1.45-5.06-3.51-9.87-5.44-14.74Z"/>
    <path class="cls-25" d="M92.24,47.72c.95-.62.81-1.74,1.2-2.62.15-.32.03-.77.54-.87.65,1.02.65,2.24.98,3.35.07.23.07.48.26.66-.47,1.23.22,2.34.4,3.49.46,2.98,1.18,5.91,1.29,8.95-1.43-4.38-2.83-8.75-4.67-12.97Z"/>
    <path class="cls-80" d="M33.93,71.47c1.16-3.33,2.81-6.43,4.58-9.47,1.06-.55,2.01-1.39,3.34-1.16.55.67-.08,1.07-.41,1.46-1.55,1.89-3.03,3.84-4.49,5.8-.32.43-.69.84-.8,1.39-.07.3-.26.5-.53.63-.75.22-.66,1.49-1.69,1.34Z"/>
    <path class="cls-151" d="M26.47,85.25c-.07-.02-.13-.04-.19-.07-.62-1.38-.04-2.69.29-4,.25-1,.61-1.97.92-2.95.34.69,1.08.95,1.6,1.45.08.17.1.34.07.52-.18.57-.5,1.08-.73,1.63-.68.9-.67,2.19-1.67,2.91-.09.17-.19.35-.28.52Z"/>
    <path class="cls-130" d="M28.24,75.72c.12-.8.35-1.57.73-2.29.47.4,1,.68,1.57.89.49.18,1.01.37,1.14.98.01.12,0,.24-.02.36-.18.52-.45.99-.77,1.45-.2.26-.42.49-.79.47-1.95-.48-2.05-.58-1.88-1.87Z"/>
    <path class="cls-36" d="M91.72,71.44c.34-.24.57-.55.52-1,.37.97.25,1.98.25,2.98.27.96.17,1.75-.9,2.19-.79.33-.96,1.17-1.3,1.86-.12.08-.24.09-.37.02-.4-.51-.2-1.16-.41-1.71-.09-.57-.2-1.14-.13-1.72.1-.25.31-.38.53-.49,1.02-.36,1.81-.92,1.82-2.14Z"/>
    <path class="cls-75" d="M90.22,77.49c-.17-1.05.34-1.85,1.21-2.18,1-.38,1.12-1.02,1.06-1.88.36.94.13,1.93.24,2.89.04.38-.18.82.22,1.14.55.67.48,1.35.03,2.03-.1.18-.2.35-.34.6-.42-.6.13-1.35-.41-1.84-.42-.37-.02-.75,0-1.03-.52.61-1.2,1.13-1.96,1.54-.42-.41-.36-.83-.04-1.27Z"/>
    <path class="cls-44" d="M31.49,75.49c-.24-.83-1.03-.83-1.65-1.08-.47-.19-.96-.31-.87-.97.07-.53.2-1.04.51-1.48.46.88,1.5.63,2.19,1.1.46.31,1.01.49.57,1.19.24.29.09.55-.06.82-.19.21-.31.54-.69.43Z"/>
    <path class="cls-59" d="M28.24,75.72c-.09.72.22,1.11.93,1.29.37.09.8.14,1.08.48.14.13.16.29.14.47-.09.33-.29.62-.47.9-.3.29-.3.9-.91.87-.67-.34-1.72-.29-1.52-1.51.11-.87.38-1.7.75-2.5Z"/>
    <path class="cls-126" d="M94.96,74.23c.28.53.31,1.1.29,1.69.19,1.09-.63,1.3-1.38,1.48-.71.16-.8-.35-.77-.9.03-.5-.08-1.01.08-1.51.03-.58.06-1.16.09-1.74.11-.07.21-.06.3.02.06.91.83.79,1.4.96Z"/>
    <path class="cls-90" d="M93.2,76.43c.07.3-.03.83.42.73.69-.15,1.49-.3,1.63-1.24.29.46.25.97.27,1.48-.15,1.53-1.65,1.44-2.53,2.08-.01-.68-.02-1.35-.03-2.03.02-.31.03-.62.05-.93.03-.11.09-.14.2-.1Z"/>
    <path class="cls-136" d="M33.93,71.47c.6-.22.72-.85,1.08-1.28.15-.18.25-.48.53-.15.26.83.11,1.72.44,2.55.21.54-.27.61-.67.54-.49-.08-.91-.41-1.42-.46-.12-.01-.23-.04-.34-.08-.04-.04-.09-.08-.13-.11.17-.34.34-.67.51-1.01Z"/>
    <path class="cls-17" d="M94.96,74.23s-.08,0-.12.02q-1.35.49-1.37-1.03c-.19-.32-.12-.65-.06-.98.31-.33.67-.45,1.11-.27.49.69.01,1.57.45,2.27Z"/>
    <path class="cls-15" d="M42.01,61.02c-1.28-.1-2.28.82-3.49.98.09-.18.17-.35.26-.53,1.18-.84,2.4-1.54,3.94-1.23.19.43-.14.59-.39.8-.11.04-.21.03-.32-.02Z"/>
    <path class="cls-35" d="M94.51,71.97c-.32.16-.64.31-1.02.26-.32-1.32-.07-2.65-.12-3.98,0-.18.14-.27.33-.25.27,1.32.54,2.64.81,3.96Z"/>
    <path class="cls-40" d="M95.23,48.25c-.96-.62-.56-1.75-.95-2.59-.2-.42-.2-.94-.29-1.42.08-.08.17-.17.25-.25.54,1.37.9,2.79.99,4.27Z"/>
    <path class="cls-135" d="M93.7,68c-.48,1.39-.11,2.82-.2,4.23,0,.33-.02.66-.03.99-.07.01-.13.02-.2.03v-6.6c.35.46.45.89.44,1.35Z"/>
    <path class="cls-4" d="M98.72,80.98c0,.2.05.39.25.5-.08.78-.28,1.52-.67,2.22.27-.89-.05-1.86.42-2.72Z"/>
    <path class="cls-139" d="M88.22,29.75c-.42-.48-.83-.97-1.25-1.45.69.22,1.15.65,1.5,1.2-.08.08-.17.17-.25.25Z"/>
    <path class="cls-20" d="M52.74,28.25c-.48.42-.96.83-1.44,1.25.19-.7.63-1.14,1.18-1.5.09.09.17.17.26.26Z"/>
    <path class="cls-4" d="M61.49,25.25c-.08-.08-.17-.17-.25-.25.27-.45.63-.82,1.4-1.28-.49.71-.63,1.24-1.15,1.53Z"/>
    <path class="cls-133" d="M23.74,45.74c0-.17,0-.34,0-.51.06-.41.19-.79.66-1.17-.1.71-.33,1.21-.65,1.68Z"/>
    <path class="cls-67" d="M79.23,21.25c.37.25.74.5,1.37.92-.84-.06-1.24-.34-1.62-.67.08-.08.17-.17.25-.26Z"/>
    <path class="cls-84" d="M32.96,72.68c.05-.42-.05-.87.26-1.23.09.34-.08.73.21,1.03h.12c.1.36-.03.63-.37.81-.37-.1-.33-.34-.22-.61Z"/>
    <path class="cls-8" d="M39.99,14.74c0-.08,0-.17,0-.25.34-.32.77-.39,1.36-.5-.41.56-.98.49-1.37.75Z"/>
    <path class="cls-42" d="M37.52,53.76c-.09-.09-.17-.17-.26-.26.17-.33.33-.65.5-.98.3.49-.03.85-.24,1.24Z"/>
    <path class="cls-103" d="M93.2,76.43c-.06.04-.13.07-.2.09-.03-.52-.18-1.06.18-1.54,0,.48.01.96.02,1.45Z"/>
    <path class="cls-6" d="M102.08,41.79c.13.45.39.69.23,1.04-.38-.2-.37-.5-.23-1.04Z"/>
    <path class="cls-14" d="M114.72,189.2c-.15,5.05-2.09,7.5-6.7,8.49-.56-.06-1.14.02-1.69-.18-3.71-1.18-7.28-2.64-9.97-5.59-3.49-3.83-5.42-8.3-5.21-13.57.01-.37,0-.75.22-1.08,1.92.44,3.5-.42,5.1-1.27,2.16-1.15,4.37-2.17,6.62-3.13.32-.07.6.03.88.17.48.31.94.66,1.44.94.75.35,1.3.99,2,1.41,3.36,3.09,5.92,6.7,7.13,11.16.23.86.51,1.74.19,2.66Z"/>
    <path class="cls-108" d="M157.71,200.18c-.68.64-1.5.92-2.41.74-3-.59-6.07-.88-8.98-1.91-1.93-.68-2.12-.95-2.11-2.97,0-1.79,0-3.58,0-5.37-.54-.6-.3-1.34-.35-2.02-.08-1.19-.03-2.39-.32-3.57.18-3.73-.03-7.46-.22-11.18,0-.31.13-.54.42-.66.29-.12.62-.13.91-.26.6-.24,1.22-.42,1.78-.74,1.33-.62,2.62-1.31,3.93-1.96.71-.21,1.24-.88,2.06-.82.01,4.99,0,9.98.05,14.98.02,1.66.16,3.31.26,4.97.17,2.9,1.92,4.76,4.19,6.26.55.36,1.18.64,1.55,1.22.14.53-.33.58-.61.78-.28.15-.61.2-.86.5.35.62,1.36,1.03.71,2.01Z"/>
    <path class="cls-108" d="M123.43,196.92c1.16-.87,2.59-1.35,3.57-2.48.31-.47.71-.88,1.05-1.33.97-1.09,1.13-2.44,1.31-3.82.35-2.86.18-5.72.27-8.58.33-.61-.39-1.16-.11-1.77.36-.56.33-1.19.33-1.82,0-2.46.04-4.91-.06-7.37.31-.72.76-.24,1.1-.07,1.37.68,2.73,1.38,4.11,2.05.98.55,2.04.93,3.1,1.3.33.14.65.28.82.63.21.51.24,1.06.16,1.58-.34,2.21-.16,4.43-.25,6.65.02.47.02.93,0,1.4-.35,3.69-.15,7.39-.25,11.08,0,.48-.01.96-.36,1.35-.02,2.26-.14,2.5-2.28,3.2-2.88.93-5.86,1.42-8.86,1.78-.86.1-1.77.14-2.37-.72-.52-.81-.03-1.29.57-1.72.54-.38.03-.37-.16-.49-.27-.09-.54-.2-.8-.32-.31-.16-.68-.21-.88-.54Z"/>
    <path class="cls-147" d="M107.25,197.97c-1.88.73-3.84.43-5.78.47-.98-.21-1.96-.15-2.94-.02-4,.16-7.99-.11-11.98-.11-1.06,0-1.68-.55-2.13-1.44-1.18-2.32-1.58-4.82-1.76-7.36-.19-2.66.06-5.32.46-7.96.13-.87.57-1.44,1.34-1.82,1.52-.74,3.16-1.03,4.81-1.27.93-.14,1.23.45,1.33,1.25.26,2.07.61,4.12,1.43,6.06,1.98,4.66,5.23,8.05,9.9,10.05,1.41.61,2.83,1.19,4.34,1.52.4.1.8.2.98.64Z"/>
    <path class="cls-108" d="M149.96,142.22c-.25-.33-.5-.66-.76-.99,1.81.21,2.97,1.43,4.05,2.7,1.78,2.08,3.5,4.22,5.23,6.35,2.31,2.83,5.29,4.88,8.49,6.42,1.24.6,3.15.22,4.68-.44.52-.23,1.14-.95,1.64-.19.51.77.1,1.52-.6,2.06-.33.25-.69.45-1.12.73,1.01.64,2.02,1.14,3.15,1.37.16.03.35,0,.49.07.65.28,1.73.24,1.6,1.24-.12.91-1.08.69-1.76.72-.37.02-.74,0-1.34,0,.78.74,1.57,1.06,2.28,1.51.39.25.86.51.62,1.07-.25.58-.74.75-1.35.55-.43-.14-.87-.28-1.3-.42-.11-.06-.23-.09-.31.04-.05.07-.02.15.05.22.41.53,1.61.77.95,1.69-.59.83-1.43.19-2.12-.15-.29-.14-.56-.32-1.14-.66.32.53.47.79.64,1.04.23.34.61.68.2,1.09-.41.41-.97.39-1.35,0-1.7-1.7-3.76-3.03-5.14-5.06-.21-.3-.41-.57-.79-.74-4.32-1.97-8.13-4.67-11.36-8.17-.38-.41-.67-.99-1.35-1.01-.13-2.96-.06-5.95-1.02-8.8-.27-.81-.51-1.67-1.26-2.22h0Z"/>
    <path class="cls-9" d="M114.72,189.2c-.67-5.57-3.62-9.88-7.53-13.66-2.02-1.99-3.8-4.22-5.86-6.18-.4-.38-.68-.83-.63-1.42.69-2.6,2.38-4.45,4.5-5.97.8.45,1.7.1,2.66.33-.61.73-1.53.86-2.16,1.41-.31.27-.76.46-.68.94.08.5.44.77.95.81.1.13.23.26.24.43.35,4.04,2.7,7.07,5.1,10.07.99,1.23,2.08,2.38,3.06,3.62,1.57,1.98,2.56,4.18,2.42,6.77-.1,1.85.24,3.63.82,5.38-.38.63-.68.1-.96-.09-.63-.42-.91-1.15-1.45-1.66-.16-.26-.32-.52-.47-.78Z"/>
    <path class="cls-138" d="M106.47,197.46c-4.57-.87-8.53-2.77-11.62-6.41-2.86-3.37-4.27-7.25-4.61-11.57-.06-.72-.39-.85-.97-.73-1.05.22-2.1.45-3.15.71-1.58.38-2.65,1.01-2.83,2.99-.41,4.46-.6,8.85.93,13.14.04.12.08.24.12.35.82,1.97.89,1.98,3.02,2.03,3.7.09,7.39.34,11.09.24-.11.68-.64.33-.97.35-1.59.1-3.18-.11-4.76.11-2.07.07-4.15.08-6.22.24-1.09.08-1.84-.21-2.33-1.19-.24-.42-.47-.84-.71-1.26-.51-.3-.66-.83-.85-1.32-.53-1.36-.84-2.79-.91-4.23-.14-3.01-.32-6.02.16-9.02.03-.21.05-.42.11-.63.17-.45.14-.95.3-1.4.25-.59.79-.84,1.32-1.08,2.27-1.02,4.68-1.45,7.13-1.72.25-.03.5-.03.69.19.13,1.81-.03,3.64.41,5.44,1.73,7.16,6.2,11.72,13.11,14.02.51.17,1.02.34,1.53.52.06.05.08.1.06.15-.02.05-.04.08-.06.08Z"/>
    <path class="cls-27" d="M138.47,183.19v-1.26c2.57-1.03,4.77.37,5.24,3.32.87,1.18.31,2.56.49,3.83.08.53.01,1.07.01,1.61-.68.42-1.02.85-.76,1.79.66,2.44-1.07,4.16-3.55,3.65-.56-.11-1.12-.27-1.68-.41,0-.42,0-.84,0-1.27.51-.42,1.03-.09,1.53,0,.69.13,1.41.35,1.95-.32.57-.7.3-1.39-.1-2.06-.13-.37-.43-.68-.43-1.11.32-.47.9-.56,1.31-.9.37-.31.81-.6.67-1.2-.2-.42-.64-.34-.97-.47-.51-.26-.65-.57-.19-1.02.3-.29.82-.46.64-1.04-.22-.45-.93-.32-1.05-.89-.06-.49.23-1-.07-1.48-.31-.3-.69-.08-1.03-.11-.64-.3-1.41-.21-2-.68Z"/>
    <path class="cls-51" d="M129.99,165.7c.98-.16,1.95.65,3.02-.05.23-.15,1.01.52,1.7.61,4.62.57,9.25.63,13.82-.17.96-.17,1.93-.11,2.88-.27.96-.16,1.08-.58,1.07-1.39-.04-1.99,0-3.99,0-5.98.34.39.21.87.21,1.31.02,2.48.02,4.95.01,7.43,0,.44.12.92-.21,1.31-.14-.1-.22-.23-.26-.39q-.36-1.46-1.91-1.12c-1.23.16-2.47.33-3.69.55-.83.1-1.65.07-2.48.05-1.94,0-3.88-.01-5.83,0-.83.03-1.66.05-2.49-.08-1.5-.25-3.02-.41-4.52-.67-.49-.08-.99-.12-1.36-.51-.13-.21-.13-.41.04-.6Z"/>
    <path class="cls-27" d="M115.2,189.98c.79-.07.72.83,1.24,1.1.39.2.69.58,1.03.87.16-.07.34-.08.48.01,1.71,1.15,3.41.84,5.23.15,1.91-.72,3.69-.12,4.78,1.34-.06.58-.38.9-.96.98-1.19-1.14-2.5-1.18-4.01-.66-3.78,1.3-6.46-.05-7.79-3.81Z"/>
    <path class="cls-93" d="M150.45,166.7c.43-.45,1.04-.16,1.54-.35.43-.17.45.22.46.51.02.54.02,1.08.03,1.62-.02.33-.04.66-.06.99-.61.42-1.21.85-1.96.99-.22-1.25-.13-2.51-.01-3.76Z"/>
    <path class="cls-49" d="M157.71,200.18c.16-1.06-.64-1.49-1.46-2.06.55-.25,1-.46,1.45-.67.82.08,1.59.22,1.73,1.24-.32.8-.93,1.26-1.73,1.49Z"/>
    <path class="cls-92" d="M125.21,197.45c.36.16.73.31,1.28.56-1.05.41-1.98.75-1.79,1.97-.61.07-.87-.46-1.26-.76.12-1.06.97-1.38,1.77-1.76Z"/>
    <path class="cls-148" d="M92.73,198.67c1.37-.47,2.79-.1,4.18-.23.52-.05,1.09.19,1.55-.23,1,.11,2.03-.26,3,.23-2.91.15-5.82.34-8.74.23Z"/>
    <path class="cls-156" d="M159.44,198.7c-.37-.71-1.14-.85-1.73-1.24.27-.16.61-.23.77-.55,1.58.38,1.81.8.97,1.79Z"/>
    <path class="cls-60" d="M125.21,197.45c-.59.59-1.18,1.17-1.77,1.76-.41-.22-.55-.63-.75-1,.42-.64,1.07-.86,1.77-1.01l.75.25Z"/>
    <path class="cls-16" d="M161.66,130.66c-.34-.59-.1-1.19-.07-1.79.05-.88.48-.89,1.12-.65-.35.81-.7,1.63-1.06,2.44Z"/>
    <path class="cls-164" d="M124.46,197.21c-.54.42-1.09.82-1.77,1.01-.55-.88.15-1.05.73-1.29.35.1.69.19,1.04.29Z"/>
    <path class="cls-137" d="M148.47,140.95c-.17.31-.47.26-.75.27-.59.1-.7-.46-1.02-.74l-.74-.5c.94.07,1.77.41,2.51.98Z"/>
    <path class="cls-58" d="M106.47,197.46c0-.08,0-.15,0-.23.53.11,1.09.11,1.55.46-.26.09-.52.19-.78.28-.26-.17-.52-.34-.78-.51Z"/>
    <path class="cls-87" d="M173.71,165.2c-.21-.17-.43-.33-.76-.59.54-.13.77.11,1.02.33-.09.09-.17.17-.26.26Z"/>
    <path class="cls-38" d="M30.99,200.7c-.07-.24-.2-.47-.2-.71,0-1.16-.71-.91-1.43-.78-.9.17-.73.69-.49,1.27.06.15.08.32.12.48-1.08.31-1.6,0-1.75-1.01-.25-1.78.3-2.59,2.33-3.33-.27-.22-.48-.44-.73-.58-1.5-.79-1.7-1.17-.93-2.59.47-.85.77-1.84,1.57-2.49,1.07.41.79-.54,1-1,2.86-.84,5.52-2.28,8.7-2.06,3.25.22,6.31-.51,8.79-2.97.86-.85,1.97-1.53,3.25-1.73.92-.47,1.84-.12,2.76,0h0c-.04.62-.55.54-.92.57-.66.06-1.32.17-1.99.35,1.25-.16,2.07.47,2.73,1.42.12.17.23.35.31.54,1.19,2.85,2.83,3.38,6.11,2.87,3.48-.55,6.84-1.77,10.36-2.2,1.71-.21,3.4-.23,5.08.17,2.51.59,3.8,2.21,3.93,4.78.08,1.67-.29,3.31-.24,4.97.02.48-.26.65-.63.79-3.77.52-7.47,1.43-11.21,2.12-3.9.73-7.72,1.88-11.67,2.33-3.96.45-7.9.46-11.85-.51-2.96-.73-6.02-1.07-9.08-1.19-1.34-.05-2.64.12-3.92.5Z"/>
    <path class="cls-9" d="M78.72,197.44c.7-.9.16-1.97.38-2.97.27-1.23.24-2.59.01-3.84-.46-2.53-2.4-3.54-5.48-3.66-3.95-.16-7.7.98-11.46,1.96-1.08.28-2.17.51-3.3.52-2.14.03-3.94-.45-4.79-2.73-.7-1.87-2.04-2.75-4.17-2.27.85-.77,1.79-.93,2.78-1.01.44-.03.93.17,1.29-.25.94.11,1.47.9,2.21,1.35.78.23,1.25.91,1.88,1.36,1.27.92,2.6,1.16,4.11.8.93-.22,1.86-.4,2.76-.71.18-.06.37-.1.56-.12,2.24-.34,4.26-1.39,6.42-1.98,1.82-.36,3.57-.97,5.27-1.68.49-.21.98-.42,1.53-.43.67.12,1.29-.15,1.93-.28.53-.11,1.06-.23,1.52.19-.21,1.89-.23,3.79-.27,5.68-.06,3.13.38,6.17,1.56,9.08-.03.36-.26.46-.58.5-1.39.2-2.71.9-4.17.48Z"/>
    <path class="cls-51" d="M146.7,140.47c.34.25.68.5,1.02.74.49,1.91.14,2.89-1.52,4-3.1,2.09-6.28,1.91-9.48.25h0c-.67-.49-1.23-1.07-1.62-1.8-.69-1.3-.24-2.58,1.13-3.2-.79,1.24-.58,2.39.65,3.51,2.26,2.06,7.03,1.95,9.18-.22,1.11-1.11,1.26-1.9.65-3.28Z"/>
    <path class="cls-50" d="M137.25,132.75c-.61-3.37-.61-3.39,2.73-3.29,1.32.04,2.64.15,3.96.21.44.02.74.11.66.63-.15.97-.09,1.99-.67,2.86-.23.12-.39-.03-.54-.16-1.6-1.36-3.3-1.54-5.11-.45-.31.19-.63.43-1.03.2Z"/>
    <path class="cls-161" d="M137.25,132.75c1-.57,1.97-1.27,3.19-1.24,1.39.04,2.59.53,3.49,1.64-.5,1.48-1.62,2.22-3.08,2.24-1.79.03-3.02-.92-3.6-2.65Z"/>
    <path class="cls-45" d="M154.74,122.27c.29.71-.48.9-.46,1.4.54.27.75-.47,1.21-.4.04.07.12.19.11.2-.92.65-1.14,1.59-1.32,2.65-.21,1.21-1.3,1.97-2.21,1.77-1.21-.26-1.64-1.18-1.73-2.3-.17-2.15,1.23-3.38,3.15-2.69.73.26.73-.51,1.24-.63Z"/>
    <path class="cls-94" d="M130.96,125.78c-.21,1.12-1,1.03-1.78.8-.68-.19-1.09-.75-1.34-1.38-.23-.58-.22-1.2-.29-1.82-.06-.53-1.09-.42-1.07-1.2.45-.28.65.51,1.16.2.1-.4-.62-.63-.34-1.22.58.66,1.2.51,1.95.3,1.09-.3,1.77.46,2.2,1.39.55,1.2.34,2.32-.5,2.95-.27-.2-.22-.6-.56-.96-.02.58.22.79.58.93Z"/>
    <path class="cls-74" d="M132.71,129.74c-.88-.09-1.73-.2-2.48-.68-.24-.15-.5-.36-.4-.7.08-.26.34-.31.58-.4,1.11-.41,2.2-.25,3.26.12.42.15.94.36.94.87,0,.61-.67.5-1.05.67-.25.11-.57.08-.84.11Z"/>
    <path class="cls-117" d="M145.5,139.87c-1.68.92-3.5.95-5.32.78-.77-.07-1.53-.29-2.3-.44-.26-.05-.53-.14-.54-.42,0-.34.32-.34.55-.31,2.52.33,5.06.21,7.6.39Z"/>
    <path class="cls-74" d="M149.63,130.5c-.72.05-1.41-.07-2.05-.38-.63-.31-.64-.79,0-1.05,1.17-.49,2.4-.55,3.6-.09.32.12.78.21.71.72-.06.44-.46.59-.81.67-.47.11-.98.1-1.47.14Z"/>
    <path class="cls-53" d="M153.3,117.74c1.03.3,2.04.85,2.9,1.66.23.22.31.5.09.78-.28.36-.6.22-.87,0-.75-.59-1.49-1.19-2.47-1.36-.34-.06-.83-.13-.68-.67.12-.46.54-.44,1.04-.41Z"/>
    <path class="cls-128" d="M129.92,116.71c.4.06.94-.15,1.01.47.07.65-.49.51-.87.59-.82.16-1.63.36-2.32.85-.32.22-.65.49-.94,0-.25-.42.03-.72.36-.93.84-.56,1.76-.94,2.77-.98Z"/>
    <path class="cls-95" d="M161.62,127.11c.36-.9.34-1.44.09-1.99-.22-.5-.38-.98.15-1.45.62-.55,1.32-.81,2.12-.87.11,0,.29.18.34.31.09.28-.15.33-.36.36-.16.02-.33,0-.49.02-1.18.19-1.43.59-1.15,1.73.15.61.4,1.27-.69,1.9Z"/>
    <path class="cls-5" d="M119.45,125.55c-.33-.79-.37-1.42-.13-1.95.52-1.16-.07-1.49-1.04-1.63-.31-.05-.69.07-.87-.3-.03-.07.04-.25.11-.3.3-.22.62-.16.94-.02.52.24,1.04.48,1.45.92.3.32.59.58.17,1.02-.54.56-.19,1.41-.62,2.26Z"/>
    <path class="cls-142" d="M141.26,126.22s.31-.02.53.07c.42.19,1.17.34.94.9-.24.59-.66-.1-1-.2-.56-.17-1.09-.35-1.65.03-.22.15-.58.36-.73-.03-.13-.34.26-.45.5-.59.38-.22.79-.19,1.41-.18Z"/>
    <path class="cls-66" d="M130.96,125.78c-.62.37-.94.08-1.05-.53-.07-.38-.02-.81.45-.88.45-.06.68.24.66.69-.01.25-.06.49-.09.74,0,0,.02-.03.02-.03Z"/>
    <path class="cls-51" d="M146.32,146.18c-.2-.02-.31-.16-.24-.32.05-.12.21-.25.34-.28.21-.04.25.16.24.33-.02.2-.17.25-.34.27Z"/>
    <path class="cls-23" d="M133.38,162.58c-.08.07-.17.22-.3.27-.17.06-.32-.04-.32-.25,0-.18.07-.33.27-.34.17-.01.33.02.35.32Z"/>
    <path class="cls-54" d="M136.34,165.55c.3.02.33.18.32.35-.02.2-.17.27-.34.27-.21,0-.31-.15-.24-.32.05-.13.2-.22.27-.3Z"/>
    <path class="cls-24" d="M131.36,151.18c-.18-.02-.34-.11-.29-.29.03-.13.19-.28.32-.32.18-.05.29.11.28.29,0,.18-.13.28-.31.31Z"/>
    <path class="cls-54" d="M146.69,165.97s-.06.14-.25.19c-.17.05-.33.01-.37-.2-.03-.19.08-.31.24-.37.19-.07.31,0,.38.38Z"/>
    <path class="cls-119" d="M146.32,156.17c-.2-.02-.31-.16-.24-.32.05-.12.21-.25.34-.28.21-.04.25.16.24.33-.02.2-.17.25-.34.27Z"/>
    <path class="cls-119" d="M136.32,156.17c-.2-.02-.31-.15-.24-.32.05-.12.21-.25.34-.28.21-.04.25.16.24.33-.02.2-.17.25-.34.27Z"/>
    <path class="cls-51" d="M136.71,145.46c-.02.28.07.62-.32.7-.17.04-.36-.06-.33-.26.06-.35.35-.42.65-.44h0Z"/>
    <path class="cls-54" d="M146.62,152.48c0,.17-.08.32-.26.33-.18.01-.31-.13-.31-.3,0-.08.11-.22.21-.25.16-.06.32-.01.37.21Z"/>
    <path class="cls-54" d="M133.02,155.54c.17.05.31.15.29.33-.02.18-.18.28-.35.24-.09-.02-.19-.15-.2-.25-.03-.18.07-.31.27-.32Z"/>
    <path class="cls-54" d="M143.3,155.9c-.07.17-.19.28-.37.22-.18-.06-.24-.23-.16-.39.04-.08.18-.17.27-.16.18.01.27.14.26.34Z"/>
    <path class="cls-24" d="M131.64,157.49c-.02.18-.12.33-.3.33-.17,0-.3-.15-.28-.33,0-.09.13-.2.23-.23.16-.04.32.01.35.23Z"/>
    <path class="cls-54" d="M138.11,157.81c-.19-.01-.31-.12-.32-.3-.01-.2.14-.29.32-.26.1.02.23.12.25.2.04.17-.06.3-.24.36Z"/>
    <path class="cls-24" d="M141.31,157.81c-.18-.05-.28-.18-.25-.36.03-.2.2-.25.37-.19.09.03.2.17.2.25,0,.17-.13.28-.32.3Z"/>
    <path class="cls-54" d="M148.38,157.49c-.02.18-.12.33-.3.33-.17,0-.3-.15-.28-.33.01-.09.13-.2.23-.23.16-.04.32.01.35.23Z"/>
    <path class="cls-54" d="M151.29,157.81c-.18-.07-.29-.19-.23-.38.06-.18.23-.24.39-.16.08.04.17.18.16.27-.01.18-.15.27-.33.26Z"/>
    <path class="cls-23" d="M143.03,162.8c-.17-.07-.28-.19-.22-.37.06-.18.23-.24.39-.16.08.04.17.18.17.27-.01.18-.15.27-.34.26Z"/>
    <path class="cls-12" d="M131.44,161.14c-.18-.02-.33-.12-.33-.29,0-.17.15-.3.33-.28.09,0,.2.13.23.23.04.16-.01.32-.23.35Z"/>
    <path class="cls-24" d="M138.31,160.81c-.01.19-.13.31-.3.32-.2.01-.29-.15-.26-.32.02-.1.12-.23.2-.25.17-.04.3.07.36.25Z"/>
    <path class="cls-12" d="M141.35,161.12c-.16-.07-.3-.17-.22-.36.07-.16.21-.28.38-.18.08.05.15.19.15.29,0,.2-.13.28-.32.25Z"/>
    <path class="cls-24" d="M148.02,160.54c.17.05.31.15.28.33-.02.18-.18.29-.35.24-.09-.02-.19-.15-.2-.25-.03-.18.07-.31.27-.33Z"/>
    <path class="cls-12" d="M151.43,161.14c-.18-.02-.33-.12-.33-.3,0-.17.15-.3.33-.28.09,0,.2.13.23.23.04.16-.01.32-.23.35Z"/>
    <path class="cls-54" d="M136.63,162.46c0,.18-.07.33-.26.35-.18.02-.31-.12-.32-.29,0-.08.11-.22.2-.25.16-.06.32-.01.38.19Z"/>
    <path class="cls-54" d="M146.31,162.24c.18,0,.33.08.32.28-.01.17-.14.31-.32.28-.09-.01-.21-.14-.24-.23-.06-.18.05-.3.24-.33Z"/>
    <path class="cls-54" d="M143.04,166.13c-.2,0-.31-.11-.3-.29,0-.1.1-.24.18-.27.18-.07.33.04.37.22.04.19-.08.29-.25.35Z"/>
    <path class="cls-23" d="M133.37,142.46c0,.18-.08.33-.26.35-.18.01-.31-.13-.31-.3,0-.08.11-.22.2-.25.16-.06.32,0,.37.2Z"/>
    <path class="cls-12" d="M133.32,145.81c-.01.19-.13.31-.3.32-.19.01-.29-.14-.26-.32.02-.09.12-.23.2-.25.17-.04.3.06.36.24Z"/>
    <path class="cls-54" d="M131.31,147.25c.18,0,.33.08.32.28-.01.17-.14.31-.32.28-.09-.01-.21-.14-.24-.23-.06-.18.05-.3.24-.32Z"/>
    <path class="cls-54" d="M138.37,147.49c-.02.18-.12.33-.3.32-.17,0-.3-.15-.28-.33,0-.09.13-.2.23-.23.16-.04.32.01.35.23Z"/>
    <path class="cls-54" d="M141.34,147.24c.18.02.31.11.28.31-.03.18-.16.3-.34.25-.09-.03-.21-.15-.23-.25-.04-.19.1-.28.28-.3Z"/>
    <path class="cls-54" d="M148.37,147.46c0,.18-.08.33-.26.35-.18.01-.31-.13-.31-.3,0-.08.11-.22.2-.25.16-.06.32,0,.37.2Z"/>
    <path class="cls-54" d="M151.31,147.25c.15,0,.32.02.32.24,0,.18-.12.32-.29.32-.09,0-.22-.12-.26-.22-.08-.18,0-.31.23-.35Z"/>
    <path class="cls-24" d="M138.31,150.81c-.01.19-.13.31-.3.32-.2.01-.29-.15-.26-.32.02-.1.12-.23.2-.25.17-.04.3.07.36.25Z"/>
    <path class="cls-12" d="M141.68,150.84c-.02.18-.11.31-.31.28-.18-.03-.3-.16-.25-.34.03-.09.15-.21.25-.22.19-.04.28.1.3.28Z"/>
    <path class="cls-24" d="M148.3,150.89c-.07.18-.19.29-.38.23-.18-.06-.24-.23-.16-.39.04-.08.18-.17.27-.17.18.01.27.15.26.33Z"/>
    <path class="cls-54" d="M151.67,150.81c0,.18-.08.33-.28.32-.17-.01-.31-.14-.28-.32.01-.09.14-.21.23-.24.18-.06.3.04.32.24Z"/>
    <path class="cls-23" d="M133.38,152.49c-.02.18-.12.33-.3.32-.17,0-.3-.15-.28-.33,0-.09.13-.2.23-.23.16-.04.32.01.35.23Z"/>
    <path class="cls-54" d="M136.28,152.81c-.17-.07-.28-.19-.22-.37.06-.18.23-.24.39-.16.08.04.17.18.16.27-.01.18-.15.27-.34.26Z"/>
    <path class="cls-23" d="M143.37,152.55c-.05.17-.16.3-.35.25-.17-.04-.28-.19-.21-.37.03-.09.17-.18.27-.18.18-.01.29.1.29.3Z"/>
    <path class="cls-30" d="M141.66,164.27c-.15.07-.25.15-.35.14-.19,0-.29-.13-.2-.31.04-.07.21-.11.3-.09.08.02.14.14.24.25Z"/>
    <path class="cls-111" d="M148.4,164.27c-.15.07-.25.15-.35.14-.19,0-.29-.13-.19-.31.04-.07.21-.11.3-.09.08.02.14.14.24.25Z"/>
    <path class="cls-30" d="M151.39,164.47c-.12-.08-.28-.12-.3-.2-.05-.2.11-.28.28-.26.09.01.21.13.22.2,0,.07-.12.16-.2.26Z"/>
    <path class="cls-30" d="M151.68,154.22c-.14.09-.22.19-.31.2-.17.01-.33-.07-.27-.27.02-.07.19-.14.28-.14.09,0,.17.11.3.21Z"/>
    <path class="cls-123" d="M139.96,165.76c-.07.13-.1.29-.17.32-.19.07-.3-.07-.29-.24,0-.09.1-.22.19-.25.06-.02.17.1.28.17Z"/>
    <path class="cls-30" d="M144.96,160.91c-.1.07-.2.19-.27.17-.08-.02-.18-.15-.19-.24-.01-.17.09-.32.28-.26.08.02.11.18.18.32Z"/>
    <path class="cls-111" d="M148.4,154.28c-.15.07-.25.15-.35.14-.19,0-.29-.14-.19-.31.04-.07.21-.11.3-.09.08.02.14.14.24.25Z"/>
    <path class="cls-30" d="M141.3,153.95c.12.08.26.13.28.21.05.21-.12.28-.28.25-.08-.01-.21-.13-.21-.21,0-.07.12-.16.21-.25Z"/>
    <path class="cls-111" d="M138.4,154.28c-.15.07-.25.15-.35.14-.19,0-.29-.14-.19-.31.04-.07.21-.11.3-.09.08.02.14.14.24.25Z"/>
    <path class="cls-30" d="M131.68,154.22c-.14.09-.22.19-.31.2-.17.01-.33-.07-.27-.27.02-.07.19-.14.28-.14.09,0,.17.11.3.21Z"/>
    <path class="cls-123" d="M149.77,152.26c.07.15.15.25.14.35,0,.19-.13.29-.31.2-.07-.04-.11-.21-.09-.3.02-.08.14-.14.25-.24Z"/>
    <path class="cls-111" d="M139.74,152.91c-.1-.12-.21-.19-.22-.27-.01-.1.05-.27.12-.3.19-.07.3.07.29.24,0,.09-.1.18-.18.33Z"/>
    <path class="cls-30" d="M131.26,163.96c.13.07.29.1.32.17.07.19-.07.3-.24.29-.09,0-.22-.1-.25-.19-.02-.06.1-.17.17-.28Z"/>
    <path class="cls-30" d="M144.77,150.52c.07.15.15.25.14.35,0,.19-.13.29-.31.19-.07-.04-.11-.21-.09-.3.02-.08.14-.14.25-.24Z"/>
    <path class="cls-30" d="M134.97,150.79c-.08.12-.12.28-.2.3-.2.05-.28-.11-.26-.27.01-.09.12-.21.2-.22.07,0,.16.12.26.2Z"/>
    <path class="cls-30" d="M146.68,149.22c-.14.09-.22.19-.31.2-.17.01-.33-.07-.27-.27.02-.07.19-.14.28-.14.09,0,.17.11.3.21Z"/>
    <path class="cls-123" d="M143.41,149.23c-.14.09-.23.18-.32.19-.17,0-.32-.1-.26-.28.02-.07.2-.13.29-.12.08,0,.16.12.29.22Z"/>
    <path class="cls-30" d="M136.27,149.47c-.07-.1-.19-.2-.17-.27.02-.08.15-.18.24-.19.17-.01.32.09.26.28-.02.08-.18.11-.32.18Z"/>
    <path class="cls-123" d="M133.02,149.47c-.07-.1-.19-.2-.17-.27.02-.08.15-.18.24-.19.17-.01.32.09.26.28-.02.08-.18.11-.32.18Z"/>
    <path class="cls-123" d="M134.97,147.65c-.1.07-.2.19-.27.17-.08-.02-.18-.15-.19-.24-.01-.17.09-.31.28-.26.07.02.11.18.18.32Z"/>
    <path class="cls-111" d="M138.42,164.22c-.14.09-.22.19-.31.2-.17.02-.33-.07-.27-.27.02-.07.19-.14.28-.14.09,0,.17.11.3.21Z"/>
    <path class="cls-123" d="M143.41,159.18c-.12.1-.19.21-.27.22-.1.01-.27-.05-.3-.12-.07-.19.07-.3.24-.29.09,0,.18.1.33.18Z"/>
    <path class="cls-123" d="M149.73,145.51c.09.14.18.23.19.32,0,.17-.1.32-.28.26-.07-.02-.13-.2-.12-.29,0-.08.12-.16.22-.29Z"/>
    <path class="cls-111" d="M147.75,144.24c.12-.1.19-.22.27-.22.1-.01.27.04.3.11.07.19-.07.3-.24.29-.09,0-.19-.1-.33-.18Z"/>
    <path class="cls-154" d="M130.97,144.46c.16-.25.32-.5.48-.75.39.6.14.79-.48.75Z"/>
    <path class="cls-111" d="M145.03,147.68c-.11.06-.21.15-.31.16-.22.01-.26-.17-.21-.32.02-.08.17-.19.23-.17.08.02.14.15.28.34Z"/>
    <path class="cls-111" d="M149.96,142.21c-.02.23.08.51-.22.62-.05.02-.22-.11-.23-.19-.05-.34.2-.39.45-.42,0,0,0,0,0,0Z"/>
    <path class="cls-30" d="M136.67,159.18c-.12.1-.19.22-.27.22-.1.01-.27-.04-.3-.11-.07-.19.07-.3.24-.29.09,0,.19.1.33.18Z"/>
    <path class="cls-30" d="M134.97,160.76c-.07.13-.1.29-.17.32-.19.07-.3-.07-.29-.24,0-.09.1-.22.19-.25.06-.02.17.1.28.17Z"/>
    <path class="cls-111" d="M144.39,157.49c.11-.06.2-.15.3-.16.22-.01.26.16.21.32-.02.08-.17.19-.23.17-.08-.02-.13-.16-.28-.34Z"/>
    <path class="cls-123" d="M133.41,159.18c-.12.1-.19.21-.27.22-.1.01-.27-.05-.3-.12-.07-.19.07-.3.24-.29.09,0,.19.1.33.18Z"/>
    <path class="cls-123" d="M139.74,162.91c-.1-.12-.21-.19-.22-.27-.01-.1.05-.27.12-.3.19-.07.3.07.29.24,0,.09-.1.18-.18.33Z"/>
    <path class="cls-30" d="M139.96,155.91c-.1.07-.2.19-.27.17-.08-.02-.18-.15-.19-.24-.01-.17.09-.32.28-.26.08.02.11.18.18.32Z"/>
    <path class="cls-30" d="M146.67,159.23c-.14.09-.23.18-.32.19-.17,0-.32-.09-.26-.28.02-.07.2-.13.29-.12.08,0,.16.12.29.22Z"/>
    <path class="cls-123" d="M149.96,162.65c-.1.07-.2.19-.27.17-.08-.02-.18-.15-.19-.24-.01-.17.09-.32.28-.26.08.02.11.18.18.32Z"/>
    <path class="cls-111" d="M134.74,157.91c-.1-.12-.21-.19-.22-.28-.01-.1.05-.27.12-.3.19-.07.3.07.29.24,0,.09-.1.18-.18.33Z"/>
    <path class="cls-30" d="M149.39,155.75c.11-.06.21-.15.31-.16.22-.01.26.17.21.32-.02.08-.17.19-.23.17-.08-.02-.14-.15-.28-.34Z"/>
    <path class="cls-38" d="M77.95,103.23c4.43-.48,7.01,2.16,9.13,5.48,2.76,4.34,4.39,9.2,6.15,13.99,1.03,2.81,2.39,5.48,3.46,8.27.91,2.39,1.53,4.9,1.76,7.47.23,2.57-.74,3.91-3.2,4.74-3.94,1.34-7.96,2.14-12.15,2.36-3.79.2-7.56.05-11.34.18-1.08.04-2.14,0-3.22.21-1.64.32-2.25-.45-1.76-2,.77-2.42.78-4.89.35-7.35-.21-1.23-.44-2.44-.4-3.7.04-1.22.05-2.44-.2-3.66.71.88,1,1.88,1.34,2.9.63,1.89,1.87,3.51,2.84,5.25.32.58.9.4,1.35.32,4-.74,7.87-1.65,11.45-3.88,2.94-1.83,6.31-1.84,9.5-.16.3.16.59.44.83,0,.21-.39-.22-.5-.43-.63-1.7-.98-3.58-1.29-5.49-1.2-.65.03-1.31.13-1.97.15-.69-.45-.07-1.23-.45-1.76-.07-.41-.14-.82-.22-1.23.13-.55.2-1.09-.15-1.59-.03-.32-.01-.63-.02-.95-.06-.5.16-1.03-.2-1.49-.14-.5.09-1.03-.15-1.52-.1-1.32-.2-2.63-.3-3.95-.17-1.43-.42-2.85-.32-4.37-.24.76.31,1.65-.64,2.11-.54-.68-.99-1.45-1.63-2.03-1.29-1.19-1.13-2.78-1.32-4.26-.34-2.75-1.19-5.32-2.59-7.7Z"/>
    <path class="cls-177" d="M46.99,137.46c1.05-2.85.99-5.6-.8-8.17-.29-.42-.31-.81-.19-1.28.45-1.8.75-3.61.51-5.49-.18-1.45-.57-2.8-1.53-3.87-.76-.86-.9-1.8-.71-2.78.82-4.05-.26-7.63-3.23-10.3-1.61-1.44-2.08-2.74-1.85-4.75.24-2.05.14-4.15-.67-6.13-.11-.27-.32-.67.26-.73,2.37.75,4.73,1.52,7.11,2.24.34.1.58.3.83.51,1.5,1.19,2.34,4.88,1.48,6.51-.21.22-.16.48-.15.74-.11.4-.22.79-.33,1.19-.18.86.15,1.49.79,2.08,1.46,1.35,2.89,2.75,3.47,4.76h-.02c.39.34.31.91.61,1.3,0,.44.1.86.27,1.27.28.73-.18,1.37-.25,2.05-.14.49-.37.94-.58,1.4-.14.2-.39.35-.29.65-.37.74-1.16,1.29-1.04,2.26.75,2.01,1.84,4.12,1.32,6.2-.59,2.36,0,4.42.51,6.57.88,2.19.2,3.62-2.05,4.02-1.15.2-2.41.88-3.49-.26Z"/>
    <path class="cls-38" d="M48.75,104.22c1.15-.76,2.05-.67,3.08.42,2.65,2.81,5.77,4.96,9.62,5.87,4.14.98,8.96-.78,11.49-4.22.66-.9,1.39-1.77,1.78-2.83.26-.7.69-.69,1.25-.47,2.11,1.9,2.77,4.49,3.23,7.12.49,2.82.43,2.87-2.18,4.09-5.24,2.45-10.75,3-16.43,2.16-1.64-.24-3.25-.62-4.86-1.05-.96-.25-1.46-.67-1.73-1.64-.8-2.85-1.83-5.61-3.74-7.96-.45-.55-.9-1.09-1.49-1.5Z"/>
    <path class="cls-102" d="M85.45,132.17c-1.51.39-2.76,1.28-4.1,2.04-2.48,1.42-5.29,1.88-8.03,2.54-1.51.36-2.22-.03-3-1.4-1.31-2.28-2.09-4.75-3.09-7.14,4.84-.95,9.64-1.02,14.4.47,1.62.51,2.89,1.43,3.61,3.01.15.13.34.23.21.48Z"/>
    <path class="cls-102" d="M60.28,130.63c.33.8.26,1.61.05,2.41-.24.92-.52,1.83-.8,2.73q-.76,2.45-3.28,2.67c-.74.06-1.48.13-2.22.19-.11-.31.04-.57.18-.82.63-1.13.91-2.31.52-3.59-.07-.24-.06-.49.1-.71,1.77-1.05,3.57-2.03,5.45-2.88Z"/>
    <path class="cls-174" d="M54.83,133.51c.73,1.87.42,3.57-.8,5.13-3.59.38-7.18.66-10.78.26.1-.71.41-1.29,1-1.71.92.03,1.81.41,2.75.27,1.24.36,2.47.16,3.68-.1,1.6-.35,1.91-.84,1.83-2.54-.02-.37.02-.74.03-1.11.7-.8,1.46-.96,2.29-.19Z"/>
    <path class="cls-168" d="M51.99,111.99c-1.17-1.98-2.57-3.78-4.35-5.26-.74-.61-.17-1.07.09-1.58,2.47,1.63,3.64,4.06,4.26,6.84Z"/>
    <path class="cls-127" d="M83.49,117.22c.48-.76.13-1.6.24-2.39.04-.3-.1-.77.36-.78.48-.02.38.45.38.75,0,1.56-.02,3.12-.03,4.68-.26-.78-.27-1.67-.96-2.26Z"/>
    <path class="cls-85" d="M50.7,120.93c-.75-1.26.55-1.58,1.04-2.26-.09.87-.63,1.54-1.04,2.26Z"/>
    <path class="cls-144" d="M52.45,116.67c.08-.71.16-1.42.23-2.12-.1-.27.03-.35.28-.31.51.97.06,1.83-.28,2.71-.23.03-.34-.03-.23-.28Z"/>
    <path class="cls-176" d="M85.45,132.17c-.07-.16-.14-.32-.21-.48.47-.43.1-1,.25-1.48.48.5.11,1.22.45,1.76-.16.07-.32.13-.48.2Z"/>
    <path class="cls-21" d="M52.45,116.67c.08.09.15.19.23.28-.12.41-.25.82-.65,1.06,0-.49.16-.93.42-1.34Z"/>
    <path class="cls-7" d="M52.96,114.24c-.09.1-.18.21-.28.31-.07-.43-.15-.86-.22-1.29-.09-.11-.07-.21.04-.3.36.35.2.89.46,1.28Z"/>
    <path class="cls-55" d="M84.75,123.44c.38.47.18,1.03.25,1.54.06.07.08.13.04.19-.03.05-.06.07-.09.07-.38-.56-.19-1.19-.2-1.8Z"/>
    <path class="cls-3" d="M84.95,125.24c.02-.09.03-.17.05-.26.38.46.18.99.21,1.5-.08.1-.15.1-.2-.03-.02-.4-.04-.81-.06-1.21Z"/>
    <path class="cls-11" d="M52.51,112.96c-.01.1-.03.2-.04.3-.3-.38-.4-.83-.49-1.28.48.16.52.57.53.99Z"/>
    <path class="cls-153" d="M85.25,127.47c.29.5.38,1.01.01,1.52-.03-.42-.05-.83-.08-1.25-.08-.11-.06-.2.06-.27Z"/>
    <path class="cls-141" d="M85.25,127.47c-.02.09-.04.18-.06.27-.33-.39-.2-.84-.19-1.28.07.01.13.02.2.03.02.33.03.66.05.98Z"/>
    <path class="cls-98" d="M42.01,61.02c.07-.02.15-.04.22-.06.66-.41,1.34-.24,2-.08-.4-.22-1.03-.02-1.25-.65.49-1.19,1.52-1.98,2.34-2.89,5.11-5.67,10.49-11.08,16.24-16.11,1.75-1.53,3.54-3,5.26-4.55.82-.74,1.34-.58,1.96.02,2.15,2.13,4.42,4.16,6.4,6.44,3.14,3.61,5.73,7.62,7.82,11.93.81,1.68,1.48,3.42,2.22,5.14-.04.05-.07.09-.11.14-.44.29-.99.32-1.47.5-.15.08.12.21.02.08-.04-.05-.02-.08.06-.11.56-.18,1.12-.22,1.69-.03.17.09.29.22.33.42.64,1.95,1.29,3.9,1.9,5.86.11.35.49.72.14,1.14-.49.03-.88.2-1.09.69-.59,1.35-1.69,1.66-3.06,1.65-1.84-.01-3.21.89-3.93,2.58-.73,1.7-.53,3.33.65,4.81.65.82,1.67,1.07,2.48,1.65.15.14.25.3.28.51,0,.43-.17.83-.43,1.15-1.61,2.01-1.88,4.45-2.33,6.86-.36,1.89,0,3.71.27,5.55.08.52.3,1.06-.13,1.54-4.47,1.06-8.99,1.79-13.57,2.29-7.44.82-14.59-.72-21.75-2.34-.56-.13-1.11-.3-1.67-.45-.38-.42-.34-.92-.24-1.42.85-4.34-.14-8.32-2.25-12.11-.34-.61-.95-1.37.31-1.75,1.68.05,3.22-.24,4.44-1.55,1.34-1.43,1.46-3.05.78-4.75-.67-1.66-1.96-2.54-3.77-2.58-.46,0-.94-.07-1.37.09-1.01.37-1.77.28-2.19-.87-.18-.48-.5-.35-.71.02-.17.3-.15.64-.13.98.01.32.16.74-.18.92-.41.22-.81-.05-1.15-.29-.66-.46-.92-1.15-1.03-1.92-.44-.36-.03-.57.15-.8,1.95-2.56,3.91-5.12,5.86-7.68Z"/>
    <path class="cls-57" d="M26.75,84.73c.54-.98.72-2.14,1.49-3.01,3.22,1.09,5.92,4.62,6.04,7.98.02.46.27,1.12-.54,1.27-2.73-1.19-5.12-2.78-6.52-5.54-.13-.25-.31-.48-.47-.71Z"/>
    <path class="cls-77" d="M41.55,79.7c-1.34.08-.57.84-.31,1.22,1.3,1.89,1.81,4.03,2.3,6.21.48,2.14.59,4.23,0,6.35-.11.39-.04.82-.05,1.24-.45-.09-.9-.16-1.26-.48-.01-1.28.19-2.55.2-3.83.05-5.61-2.36-10.01-6.53-13.57-.73-.62-1.47-1.22-2.31-1.7-.41-.23-.77-.51-.72-1.06-.02-.34.02-.65.32-.87.12-.25.24-.49.36-.74.06,0,.12.01.18.01.8,1.38,1.93,2.23,3.59,2.26.42,0,.65.36.72.76.31,1.82,1.45,2.94,3.06,3.66.23.1.45.24.46.54Z"/>
    <path class="cls-71" d="M32.98,73.96c0,.58.47.71.85.95,2.63,1.71,4.89,3.79,6.51,6.51,2.09,3.49,2.71,7.3,2.37,11.29-.04.52-.32,1.02-.49,1.53-.34-.05-.73.1-.99-.25-.35-.41-.15-.87-.11-1.31.6-5.49-.96-10.23-4.92-14.13-.95-.93-2.04-1.69-3.2-2.34-.48-.27-1.11-.47-1.02-1.23.09-.25.17-.49.26-.74.29.13.52.14.5-.28.08-.1.16-.09.24,0Z"/>
    <path class="cls-112" d="M31.99,74.98c.87,1.18,2.34,1.51,3.42,2.43,3.57,3.06,5.71,6.82,6.1,11.55.14,1.7,0,3.36-.27,5.03-.36.02-.69-.08-.99-.26-.4-.44-.23-.96-.14-1.43.65-3.47-.37-6.6-2.02-9.55-1.35-2.4-3.28-4.28-5.69-5.65-.51-.29-1.22-.51-.9-1.37,0-.08,0-.16,0-.25.17-.17.33-.34.5-.51Z"/>
    <path class="cls-28" d="M90.22,77.49c.05.42-.15.9.25,1.25.29.29.28.63.17.98-.45.81-1.19,1.38-1.7,2.15-2,2.99-2.92,6.21-2.42,9.82.08.6.16,1.26-.3,1.79-.35.34-.81.39-1.25.49-.74-1.19-.76-2.58-.74-3.85.07-3.92,1.29-7.49,3.84-10.53.61-.73,1.26-1.42,1.91-2.12.08,0,.16,0,.24.02Z"/>
    <path class="cls-157" d="M31.49,75.73c.04.52.38.76.81,1,4.35,2.45,6.93,6.12,8.01,11.02.46,2.07.08,3.99-.08,5.98-.44-.1-.9-.16-1.25-.49-.19-.71.21-1.37.19-2.07-.09-5.39-2.17-9.69-6.75-12.69-.62-.4-1.44-.63-1.68-1.48.24-.42.35-.92.75-1.26Z"/>
    <path class="cls-124" d="M33.74,90.98c.59-2.42-.35-4.38-1.82-6.21-1.02-1.27-2.42-2.07-3.68-3.05.12-.57.34-1.08.75-1.5,3.17,1.22,5.29,3.48,6.41,6.65.37,1.05.6,2.16.65,3.28.03.66.07,1.35-.56,1.81-.58-.34-1.26-.5-1.75-1Z"/>
    <path class="cls-19" d="M89.98,77.47c.07.57-.28.92-.64,1.27-2.82,2.78-4.26,6.15-4.68,10.09-.19,1.77.34,3.42.31,5.13-.33.08-.67.17-1,.25-.77-.69-.71-1.68-.78-2.55-.39-5.2,1.17-9.77,4.66-13.64.67-.74,1.35-1.46,1.87-2.31.45.53.16,1.17.25,1.75Z"/>
    <path class="cls-155" d="M35.49,91.98c.85-3.24-.95-7.74-3.88-9.96-.85-.64-1.93-.94-2.62-1.79,0-.16.01-.33.02-.49.25-.33.49-.67.74-1,2.5,1.5,4.83,3.18,6.23,5.88,1.18,2.28,1.6,4.67,1.31,7.21-.03.25-.08.49-.29.66-.5-.17-1-.34-1.5-.5Z"/>
    <path class="cls-173" d="M30.75,76.99c3.47,2,6.46,4.51,7.75,8.44.83,2.51,1.72,5.12.49,7.8-.36.03-.69-.08-1-.26-.36-.76-.06-1.55-.06-2.32.01-5.17-2.33-8.96-6.68-11.6-.43-.26-1.08-.35-1.01-1.08,0-.16,0-.32.01-.48.17-.17.33-.34.5-.51Z"/>
    <path class="cls-112" d="M89.73,75.72c.11.7-.25,1.16-.73,1.62-3.85,3.71-5.68,8.25-5.53,13.59.03,1.12.29,2.2.5,3.29-.33.08-.67.17-1,.25-.79-.62-.54-1.52-.61-2.31-.11-1.36-.07-2.73,0-4.1.11-2.46.87-4.73,2.03-6.87.26-.48.52-.95.49-1.52.07-.26.27-.41.49-.52,1.82-.86,2.71-2.29,2.8-4.29.03-.79.28-1.46,1.3-.87.34.54.23,1.14.25,1.73Z"/>
    <path class="cls-166" d="M30.23,77.97c1.02.68,2.11,1.27,3.05,2.05,3.82,3.18,5.78,7.82,4.71,12.95-.4-.04-.74-.17-1-.5,0-2.14.16-4.27-.66-6.35-1.14-2.86-3.12-4.92-5.72-6.46-.39-.23-.87-.35-.87-.94.16-.25.33-.51.49-.76Z"/>
    <path class="cls-39" d="M84.94,79.72c.79.13.4.59.2.89-1.64,2.47-2.48,5.23-2.49,8.15-.01,1.9-.23,3.84.33,5.72-.5.17-1,.33-1.5.5-1.14-4.67-.76-9.18,1.38-13.51.23-.46.62-.94.11-1.47-.08-.07-.16-.15-.25-.22.73-.57,1.47-.54,2.22-.05Z"/>
    <path class="cls-166" d="M86.23,93.48c.02-2.28-.4-4.55.21-6.85.72-2.71,1.93-5.04,4.04-6.89.78.27.56.75.25,1.24-.72,1.34-1.64,2.56-2.23,3.98-1.07,2.6-1.28,5.27-.78,8.02-.5.17-1,.33-1.5.5Z"/>
    <path class="cls-77" d="M82.97,79.99c.71-.08,1.04.04.59.84-1.86,3.3-2.53,6.87-2.35,10.64.04.76.17,1.48.39,2.19.15.48.12.89-.12,1.31-.33.08-.67.17-1,.25-.17-1.06-.39-2.11-.48-3.17-.33-3.94.09-7.72,2.47-11.06.21-.3.34-.66.51-1Z"/>
    <path class="cls-38" d="M127.96,193.46c-1.88-1.45-3.83-1.62-6.01-.58-1.64.79-3.12.05-4.48-.93-.71-1.38-1.12-2.88-.98-4.41.38-3.94-1.42-6.91-3.95-9.66-2.13-2.32-4.08-4.77-5.46-7.65-.73-1.52-1.24-3.07-1.12-4.77.76-.25,1.52-.49,2.28-.74.02.05.04.1.06.15-.39.35-.79.69-1.18,1.05-.25.23-.46.47-.26.86.18.35.46.42.82.43.89.02,1.52-.58,2.25-.95.21.33-.15.43-.22.64-.15.46-.91.87-.22,1.38.6.44,1.14.11,1.64-.37,1.22-1.18,2.48-2.32,3.71-3.48.24-.23.47-.48.84-.47.62.22.83.79,1.11,1.29,2.04,3.67,4.33,7.19,6.46,10.8,1.19,2.03,3.13,3.02,5.27,3.71.51.16,1.07.23,1.42.7-.01,3.55.16,7.12-.52,10.63-.18.93-.39,1.96-1.49,2.37Z"/>
    <path class="cls-18" d="M93.72,149.72c.63-.73.89-1.66,1.46-2.72,1.73,5.86,4.83,10.57,10.03,13.69-.15.19-.3.37-.45.56-1.67,1.22-3.01,2.73-4.14,4.45-.73,1.12-1.13,1.18-2,.21-1.45-1.61-2.62-3.44-3.68-5.33-.47-.84-.29-1.8-.38-2.7-.27-2.57-.74-5.1-1.11-7.65.03-.2.1-.39.27-.52Z"/>
    <path class="cls-107" d="M93.72,150.22c.6,3.12,1.13,6.24,1.27,9.42.01.32.13.66.3.93,1.06,1.78,2.18,3.51,3.52,5.1.58.69.97,1,1.55-.11.75-1.43,1.88-2.62,3.1-3.69.36-.31.66-.87,1.31-.62,0,.14,0,.27,0,.4.13.41-.15.61-.41.82-1.68,1.37-2.78,3.15-3.63,5.11-.5,1.15-.7,1.19-1.64.28-2.44-2.36-4.24-5.18-5.88-8.12-.51-2.36-.43-4.79-.92-7.15-.06-.27-.05-.53.04-.79.51-.49.54-1.41,1.41-1.59Z"/>
    <path class="cls-134" d="M129.97,180.47c-1.56-.39-3.06-.91-4.49-1.71-1.95-1.1-2.74-3.05-3.81-4.78-2.06-3.29-3.98-6.67-5.96-10.01.01-.3.14-.49.47-.49,2.59,4.16,5.16,8.32,7.78,12.46,1.27,2,3.34,2.76,5.51,3.31.63.22.76.64.5,1.22Z"/>
    <path class="cls-167" d="M93.49,159.96c1.37,1.82,2.48,3.82,3.89,5.62.78.99,1.74,1.77,2.62,2.82.59-1.14,1.11-2.19,1.66-3.23.75-1.42,1.94-2.46,3.1-3.51.15.1.29.21.44.31-.78,1.22-2.08,1.97-2.84,3.21-.54.88-1.18,1.7-1.41,2.73-.23.42.05,1.02-.45,1.34-.61.08-1.01-.32-1.4-.67-2.45-2.15-4.24-4.81-5.76-7.66-.08-.15-.09-.32-.09-.48.02-.2.08-.37.25-.49Z"/>
    <path class="cls-81" d="M110.4,159.95c1.53.38,3.01.63,4.32-.76-.31,1.63-2.79,2.03-4.32.76Z"/>
    <path class="cls-143" d="M106.51,160.25c.13-.72.84-.69,1.31-.92.61-.31,1.31-.45,1.97-.66.6.18.23.36-.01.48-1.03.52-2.07,1.03-3.26,1.1Z"/>
    <path class="cls-38" d="M33.77,118.47c.03,2.67,1.14,4.72,3.44,6.1,1.17.34,1.32.59.89,1.61-.39.91-.93,1.75-1.02,2.77-.16,1.83.24,3.44,1.67,4.71.4.35.8.72,1.08,1.19.09.18.11.37.08.56-.04.19-.1.36-.17.54-.31.55,0,1.25-.46,1.76-2.97-.11-5.79.35-8.23,2.22-.16.13-.35.23-.5.37-.21.21-.44.46-.18.75.27.29.56.08.75-.13.86-.97,2-1.47,3.19-1.87,2.45-.8,4.87-.87,7.29.19.79.35,1.67.45,2.55.48,4.78.18,9.53-.23,14.28-.76.77-.08,1.03-.54,1.25-1.17,1.38-3.95,2.13-7.99,2.05-12.19-.02-.95-.09-1.91.22-2.85.1-.32.1-.72.54-.71.37.01.58.33.68.65.32.99.62,1.98.54,3.04-.03.37,0,.75,0,1.12,0,.26.05.54.39.52.33-.02.35-.31.35-.56,0-.79,0-1.58,0-2.72.87,1.68,1.03,3.2,1.23,4.67.44,3.24.25,6.52.97,9.75.36,1.65-.08,3.39-.54,5.03-.39,1.41-1.22,2.41-2.83,2.58-4.87.52-9.55,2.02-14.36,2.85-2.81.49-5.66.71-8.5,1-3.86.39-7.72-.02-11.58.32-1.14.1-2.11-.66-2.84-1.58-1.81-2.28-1.39-4.83-.87-7.38.74-3.61,2.47-6.86,3.76-10.27,1.47-3.88,2.87-7.79,4.3-11.69.13-.35.19-.73.55-.94Z"/>
    <path class="cls-147" d="M76.47,146.42h3.75c.35.47.08.88-.12,1.28-2.1,4.29-3.41,8.83-3.94,13.56-.29,2.63-.3,5.31.05,7.95.26,1.99.07,3.56-1.79,4.86-2.21,1.54-4.34,3.21-6.62,4.65-.64.4-1.26,1-2.15.73-.35-1.75-.25-3.55-.57-5.29-.73-4.04-1.32-8.09-1.12-12.22.15-3.03.61-6,1.3-8.94.18-.76.72-1.17,1.38-1.49,3.21-1.57,6.37-3.23,9.58-4.79.12-.06.18-.17.23-.28Z"/>
    <path class="cls-14" d="M92.51,151.71c0,.25,0,.49,0,.74-.15,1.17-.98,2-1.57,2.93-3.56,5.64-7.8,10.72-12.65,15.3-.39.37-.82.7-1.3.96-.28.16-.55.21-.71-.17-.22-2.51-.36-5.02-.32-7.55.06-4.88,1.26-9.48,3.04-13.97.49-1.22.92-2.48,1.79-3.51,4.05-.2,8.09-.53,12.01-1.67.22.29.23.62.15.95-.41,1.79-.43,3.59-.29,5.41.02.21-.04.41-.15.59Z"/>
    <path class="cls-177" d="M41.99,162.46l.24-.25c.27-.25.07-.51.03-.77-.86-3.63-.71-7.22.46-10.77.64-.29,1.32-.18,1.99-.25,1.5-.16,1.69.03,1.51,1.48-.28,2.25-.8,4.5-.37,6.79.56,2.97,1.75,5.69,3.3,8.26.09.15.23.23.41.21,1.58-2.67,2.81-5.47,3.26-8.56.31-2.11-.3-4.12-.82-6.13-.09-.36-.24-.71-.33-1.07-.07-.28-.18-.61.03-.84.32-.34.56.24.88.15.23-.56-.25-1.17.16-1.7.16-.02.33-.04.49-.06.33.23.43.6.55.95,1.67,4.95,1.8,9.84-.55,14.63-.04.08-.04.15.03.22-.05-.35.17-.61.34-.86,2.85-4.21,2.97-8.76,1.78-13.5-.16-.62-.54-1.25-.14-1.91l.49-.09c.82.69.86,1.71,1.12,2.64.47,2.02.84,4.04.19,6.09-.59,3.63-2.31,6.8-4.11,9.92-1.06,1.84-1.63,3.77-1.17,6.05-.83-.46-1.16-1.17-1.57-1.78-1.5-2.18-2.72-4.53-3.94-6.87-1.21-1.41-1.45-3.19-1.92-4.79-.08,1.52.2,3.11.47,4.7.06.36.16.73-.03,1.09,0,.08-.01.16-.02.24-1.38-.69-1.98-2.04-2.74-3.24Z"/>
    <path class="cls-18" d="M80.79,146.44c-1.66,3.54-3.05,7.17-3.87,11.01-.87,4.06-.94,8.14-.56,12.26.06.66.1,1.32.14,1.99.62.95.32,2.02.31,3.03-.02,1.53-.26,3.06-.35,4.59-.08,1.36-.56,2.49-1.59,3.39-.7,1.03-1.95.98-2.92,1.49-2.16.67-4.21,1.7-6.48,2-.41-.44-.38-1-.33-1.52.12-1.43.28-2.86.27-4.3,0-.31.05-.66.31-.91,3.61-1.82,6.77-4.31,9.86-6.86.89-.74.44-1.99.34-2.96-.55-5.21-.17-10.3,1.29-15.34.79-2.71,1.98-5.26,3-7.87.2-.22.39-.16.57.02Z"/>
    <path class="cls-162" d="M52.74,149.02c.26.84.36,1.68.14,2.56-.64-.04-.5-.77-1.08-.97.42,1.68.9,3.26,1.23,4.88.52,2.58-.08,4.95-.99,7.28-.66,1.69-1.53,3.3-2.31,4.95-2.22-2.6-3.1-5.71-3.34-9.03-.18-2.57.1-5.13.25-7.7.02-.3.13-.56.31-.8h0c1.08-.32,1.03.37.99,1.11.45-.49.63-1.22,1.28-1.53,1.17-.25,2.34-.49,3.51-.74Z"/>
    <path class="cls-102" d="M56.54,150.99c-.27-.86-.54-1.73-.81-2.59,2.65-.84,5.46-.95,8.09-1.73,1.63-.49,3.03-.02,4.52-.07,1.94-.06,3.88-.13,5.82-.19.62-.02,1.24.02,1.86.03.07.32-.15.43-.38.55-3.4,1.81-6.84,3.56-10.29,5.29-.11.05-.24.05-.37.05-2.54.09-5.02-.38-7.5-.8-.38-.06-.7-.25-.95-.54Z"/>
    <path class="cls-56" d="M55.24,148.49c.63,2.19,1.14,4.42,1.22,6.69.12,3.78-1.02,7.18-3.62,10.2.03-.73.34-1.22.55-1.75.21-.54.4-1.09.56-1.65,1.08-3.94.96-7.84-.39-11.7-.15-.43-.21-.88-.31-1.32.63-.3,1.32-.41,2.01-.46Z"/>
    <path class="cls-145" d="M65.2,152.18c3.18-1.66,6.37-3.32,9.55-4.99.44-.23.85-.5,1.28-.75.15,0,.3-.02.45-.03.51.55-.19.59-.36.68-1.87.99-3.77,1.93-5.66,2.88-.86.43-1.67,1-2.58,1.26-2.01.58-2.58,2.09-2.88,3.89-.54,3.28-.8,6.57-.8,9.9,0,3.18.82,6.23,1.13,9.36.17,1.69.27,3.38.41,5.07.17,2.25-.31,4.49-.25,6.74-.16.03-.32.06-.48.09-.13-.11-.27-.24-.27-.4-.02-1.99-.11-3.99.47-5.94.06-3.18-.39-6.29-.95-9.41-1.09-6.08-.58-12.1.89-18.06-.05-.11-.03-.22.05-.31Z"/>
    <path class="cls-69" d="M46.97,150.19c.19,2.24-.3,4.46-.25,6.71.09,3.58.53,7.02,2.73,10.01.16.22.2.54.29.81-.16.21-.34.25-.49.02-2.11-3.32-3.75-6.85-3.95-10.83-.08-1.62.26-3.29.58-4.9.22-1.12.06-1.67-1.17-1.57.72-.38,1.51-.17,2.26-.24Z"/>
    <path class="cls-34" d="M39.71,135.48c.03-.15.06-.29.09-.44.08-.28.3-.45.54-.58.72-.33,1.44-.46,2.15.03,1.09.58,1.77,1.43,1.76,2.72-.22.64-.51,1.24-1,1.71-1.32-.4-2.64-.8-3.96-1.19-.05-.67-.15-1.35.22-1.98.48-.11.44.37.64.58.23.24.47.32.76.18.19-.09.35-.24.29-.48-.08-.33-.36-.41-.65-.44-.28-.03-.57.09-.83-.1Z"/>
    <path class="cls-33" d="M92.51,151.71c-.62-2.34-.24-4.64.29-6.94.39-.11.78-.22,1.16-.33.24.17.28.4.19.65-.59,1.5-.41,3.07-.42,4.63,0,.17,0,.34,0,.5-.57.36-.4,1.32-1.21,1.49Z"/>
    <path class="cls-113" d="M49.24,149.76c-.46.8-.8,1.69-1.58,2.34-.39-.63.85-1.79-.69-1.91.71-.39,1.53-.2,2.27-.43Z"/>
    <path class="cls-83" d="M64.94,122.85c-.47.02-.81,0-.86-.47,0-.07.14-.24.21-.24.44,0,.54.32.65.71Z"/>
    <path class="cls-32" d="M65.2,179.96c.23,2.12-.26,4.22-.2,6.33-1.21.56-2.52.75-3.82.9-2.25.26-3.68-1.08-4.98-2.63.09-.18.14-.46.28-.51,2.99-1.18,5.86-2.62,8.72-4.08Z"/>
    <path class="cls-129" d="M65.2,152.18c-.02.1-.04.21-.05.31-2.79,1.4-5.42,3.07-8.11,4.64.08-2.07-.03-4.12-.5-6.14,2.86.58,5.76.87,8.66,1.18Z"/>
    <path class="cls-32" d="M43.48,186.92c-1.29.39-2.62.32-3.94.31-1.86-.02-3.71.08-5.54.51-.44-2-.85-4-.15-6.13,2.03,3.18,5,4.55,8.56,4.84.43.04.84.02,1.07.47Z"/>
    <path class="cls-82" d="M44.75,165.47c-.67-2.33-.93-4.68-.53-7.11.51,2.1,1.25,4.11,2.02,6.1-.56.23-.79.96-1.49,1.01Z"/>
    <path class="cls-9" d="M53.99,183.2c-.92,0-1.84,0-2.76,0,0-.09,0-.17,0-.26.96-.33,1.87-.23,2.75.26Z"/>
    <path class="cls-25" d="M42.48,134.48c-.75-.06-1.48-.03-2.19.27-1.67-.49-2.23-1.87-2.53-3.34-.29-1.4-.11-2.82.49-4.16.69-1.53.68-1.54-.61-2.56-.17-.13-.28-.31-.4-.48-2.29-2.18-2.52-4.7-1.05-7.59-.92,5.82,3.45,7.91,7.2,10.51-.6.52-1.34.82-1.88,1.4-1.22,1.3-1.37,2.79-.29,4.25.41.57.85,1.12,1.27,1.68Z"/>
    <path class="cls-110" d="M37.24,124.22c.14.09.28.18.41.28q1.67,1.16.86,2.92c-1.25,2.75-.57,5.55,1.78,7.33-.17.1-.33.19-.5.29-3.47-2.83-4-5.14-1.91-9.1.54-1.01-.47-.91-.68-1.36.01-.12.02-.24.03-.35Z"/>
    <path class="cls-132" d="M30.49,189.95c-.06.47.77.92.09,1.38-.44.3-.84.09-1.09-.38.24-.43.57-.76,1-1Z"/>
    <path class="cls-122" d="M42.26,161.45c.12.24.24.48.34.73.05.12.21.31-.05.34-.09.01-.21-.2-.31-.3-.08-.17-.15-.34-.23-.51.09-.08.17-.17.26-.25Z"/>
    <path class="cls-88" d="M33,49.5c.18-.36.36-.72.65-1.29.1.74-.14,1.14-.39,1.53-.08-.08-.17-.16-.25-.24Z"/>
    <path class="cls-158" d="M44.99,36.49c0-.41.24-.66.67-.95-.03.56-.34.76-.67.95,0,0,0,0,0,0Z"/>
    <path class="cls-76" d="M84.94,79.72c-.74.02-1.48.03-2.22.05-2.58-.96-3.78-2.42-3.82-4.65-.04-2.81,2.15-5.04,4.99-4.85,1.47.1,2.22-.56,2.59-1.77.31-1.05.74-.71,1.27-.27.06.09.12.17.19.26.4.53-.05,1.33.55,1.8.07-.01.15-.02.22-.01.87.99.6,2.41,1.28,3.47-.18.08-.36.16-.54.24-.41.05-1.07-.36-1.01.56.15,2.62-1.18,4.24-3.52,5.17Z"/>
    <path class="cls-146" d="M90.01,73.75c-.45-.03-.64-.36-.73-.72-.21-.91-.37-1.83-.56-2.75.53-.47.89-1.05,1.09-1.8,1.23,1.11.79,2.25.19,3.48.69-.02,1.2-.25,1.71-.51.48,1.13-.08,1.89-1.71,2.31Z"/>
    <path class="cls-2" d="M85.73,61.23l-.26-.23c-.19-.22-.43-.43-.25-.77,0,0,0-.01,0-.01,1.36-.07,2.36.61,3.27,1.51.06.23,0,.35-.26.26-.79-.39-1.57-.8-2.49-.76Z"/>
    <path class="cls-165" d="M42.98,60.23c.43.18.86.36,1.29.54-.01.06-.03.12-.04.19-.67,0-1.34,0-2,0,.16-.24.33-.48.49-.72.09,0,.18,0,.27-.01Z"/>
    <path class="cls-70" d="M88.5,70.29c-.28.13-.75.72-.62-.21.08-.54.09-1.06.06-1.59.48.51.52,1.16.55,1.8Z"/>
    <path class="cls-26" d="M88.22,61.99c.09-.09.17-.17.26-.26.25.13.47.29.6.63-.41.1-.63-.14-.86-.37Z"/>
    <path class="cls-86" d="M32.98,73.96s-.12.02-.12.02c0,0-.12-.02-.12-.02-.01-.44-.07-.89.22-1.28.08.17.15.35.23.52-.07.25-.14.5-.2.76Z"/>
    <path class="cls-73" d="M90.73,80.97c-.06-.42.15-.89-.25-1.24,0-.33,0-.66,0-.99,0-1.17,1.23-.99,1.89-1.89-.07.67-.1,1.03-.14,1.39.06,1.33-.39,2.54-.75,3.81-.58-.19-.36-.83-.75-1.07Z"/>
    <path class="cls-76" d="M41.55,79.7c-2.08-.69-3.54-1.94-3.82-4.24-.08-.67-.53-.48-.91-.51-1.83-.14-2.61-.77-3.1-2.48.78-.32,1.31.53,2.15.43-.5-.93-.73-1.87-.33-2.87.15-.18.3-.36.45-.55.65.72.74,1.99,2.07,2.05-.03-.4-.07-.8-.09-1.2-.03-.7.23-1.28.94-1.41.73-.13.45.62.64.96.27.5.41.89,1.18.6,2.01-.74,3.87-.39,5.32,1.25,1.37,1.55,1.62,3.36.74,5.21-.93,1.96-2.59,2.82-4.75,2.74-.17,0-.33,0-.5,0Z"/>
    <path class="cls-82" d="M91.42,177.25c-2.06.38-4.17.56-6.17,1.22-1.02.33-2.05.65-2.78,1.52-1.31.99-2.96,1.2-4.42,1.86-.76.35-1.52.87-2.45.73-.46-.76.3-1.05.64-1.38,2.61-2.58,5.03-5.31,7.36-8.14,1.27-1.54,2.52-3.1,3.72-4.7.34-.46.63-1.01,1.28-1.13,3.26.52,6.32,1.71,9.38,2.9,1.43.56,2.82,1.21,4.18,1.94.43.23.95.37,1.07.95-3.08,1.52-6.13,3.07-9.24,4.53-.81.38-1.77.37-2.56-.29Z"/>
    <path class="cls-150" d="M104.24,172.94c-1.31-1.21-2.2-2.86-3.81-3.77.17-.42.35-.83.52-1.25-.05.61.32.98.72,1.36,1.87,1.8,3.6,3.72,5.23,5.74.13.15.2.35.3.53-.66-.46-1.33-.91-1.99-1.37-.22-.49-.83-.68-.96-1.24Z"/>
    <path class="cls-104" d="M104.24,172.94c.41.34.92.61.96,1.24-.44-.31-.88-.61-1.31-.92.12-.11.24-.21.36-.32Z"/>
    <path class="cls-101" d="M150.45,166.7c.46,1.25.36,2.51.01,3.76-1.26.82-2.59,1.49-4,2-.14-1.76-.44-3.53.25-5.26,1.23-.33,2.47-.52,3.74-.5Z"/>
    <path class="cls-101" d="M146.71,167.21c-.13,1.75.29,3.53-.25,5.26-.48.5-1.13.57-1.74.75-.42.23-.72-.04-.73-.37-.08-1.88-.47-3.77.23-5.62.83,0,1.66,0,2.49-.01Z"/>
    <path class="cls-89" d="M144.21,167.22c0,1.64-.01,3.28,0,4.92,0,.42-.18.96.5,1.07-.19.28-.48.24-.76.24-.56-.73-.33-1.58-.36-2.39-.04-.86.01-1.73-.13-2.59-.17,1.14-.11,2.3-.14,3.45-.02.61.09,1.25-.37,1.77-.08,0-.17.02-.25.03-.59-.73-.33-1.59-.37-2.4-.04-.83,0-1.66-.02-2.49-.02-.56-.21-.97-.87-.96-.68,0-.82.44-.84.99-.03,1.12,0,2.24-.02,3.36-.01.53.06,1.09-.38,1.52-.08,0-.16,0-.24-.04-.48-.57-.34-1.25-.37-1.91-.07-1.19.14-2.39-.19-3.79-.49,1.05-.23,1.95-.31,2.81-.09.89.25,1.83-.37,2.65,0,0,.02.03.02.03-.27-.06-.59,0-.78-.29.22-1.55.12-3.11.14-4.66,0-.45-.1-.9.12-1.33,2,0,4,0,6,0Z"/>
    <path class="cls-101" d="M142.96,173.69c0-1.79,0-3.58,0-5.37,0-.36-.06-.82.5-.81.56,0,.49.47.49.83,0,1.71,0,3.42,0,5.12-.16.07-.32.14-.48.21-.17.01-.34.02-.52.03Z"/>
    <path class="cls-38" d="M141.71,191.95c.8.65.87,1.42.36,2.28-.5.84-1.26.8-2.06.62-.6-.14-1.2-.26-1.8-.39.01-3.76-.11-7.52.25-11.27.79,0,1.59-.06,2.24.52.34.36.67-.19,1.01-.02.47.59.25,1.18,0,1.76-.08,1.07.89.41,1.25.76.37.71-.24.94-.64,1.26-.26.21-.8.38-.12.74.13.9.91.15,1.25.5.14,1.62-1.18,1.8-2.23,2.25-.13.34-.46.44-.73.61-.47.29-.64.73-.54,1.26.06.33.38.41.67.43.57.03.58-.46.74-.82.08-.19.17-.37.35-.49Z"/>
    <path class="cls-101" d="M138.21,167.22c.53,1.87.16,3.77.21,5.66,0,.22-.25.3-.46.34-1.08-.21-2.1-.58-3-1.24-.61-.74-.9-3.76-.43-4.52.31-.5.75-.42,1.2-.25.83,0,1.66,0,2.49.01Z"/>
    <path class="cls-116" d="M135.72,167.21c-.72-.08-1.09.17-1.01.96.13,1.26-.24,2.56.25,3.8-1.72-.67-3.37-1.48-4.91-2.5-.02-1.08-.04-2.17-.06-3.25,1.65.25,3.3.5,4.95.73.28.04.58-.01.79.25Z"/>
    <path class="cls-64" d="M166.76,159.02c1.5,1.52,2.98,1.37,4.59.78-.62.93-.98,1.04-2.5.91-.93-.08-1.61-.53-2.09-1.7Z"/>
    <path class="cls-105" d="M75.48,182.5c2.35-.78,4.56-1.94,6.98-2.51-.04.42.09.86-.2,1.24-1.23-.03-2.28.85-3.53.73-2.22.86-4.4,1.85-6.78,2.23.73-.7,1.95-.55,2.55-1.46.28-.27.6-.33.97-.24Z"/>
    <path class="cls-43" d="M78.74,181.96c.81-.28,1.61-.56,2.42-.85.39-.14.78-.3,1.11.11-.03.16-.05.31-.08.47-.8-.09-1.55.15-2.31.34-.4.1-.78.34-1.13-.07Z"/>
    <path class="cls-91" d="M141.71,191.95c-.2.61.09,1.54-.78,1.68-.44.07-1.37.06-1.38-.62,0-.65-.15-1.65.98-1.82.24-.03.46-.15.7-.23.26.28.59.53.49.99Z"/>
    <path class="cls-109" d="M143.46,188.71c-.15.06-.33.08-.44.19-.26.27-.55.42-.86.19-.37-.27-.04-.59.05-.88.49,0,1.01-.1,1.25.5Z"/>
    <path class="cls-9" d="M142.96,186.21c-.43-.08-.63.71-1.03.38-.29-.23-.61-.67-.22-1.14.31.43,1.08.09,1.25.76Z"/>
    <path class="cls-91" d="M141.72,183.69c-.32.15-.31.75-.79.64-.3-.07-.19-.4-.22-.62.33-.36.66-.35,1.01-.02Z"/>
    <path class="cls-172" d="M29.44,193.67c-.17,0-.35-.02-.35-.25,0-.24.18-.36.39-.41.23-.06.44.03.4.29-.03.21-.22.34-.45.37Z"/>
    <path class="cls-99" d="M151.68,125.54c.42.13.55.44.53.84-.02.42-.27.75-.66.74-.49-.01-.65-.43-.58-.89.06-.4.28-.66.71-.7Z"/>
    <path class="cls-125" d="M153.68,124.55c-.18-.02-.31,0-.4-.04-.37-.22-.93-.23-.98-.81-.02-.2.22-.23.38-.21.61.06.96.37,1,1.06Z"/>
    <path class="cls-159" d="M129.87,122.59c-.24.47-.69.68-1.16.83-.23.07-.47-.06-.36-.31.2-.46.54-.83,1.11-.86.22-.01.41.06.42.34Z"/>
    <path class="cls-37" d="M58.29,76.6c1.33-1.5,2.96-2.34,4.82-2.58,1.43-.18,2.9-.18,4.22.63.62.38,1.15.83,1.46,1.48.42.88.1,1.36-.87,1.35-.79,0-1.48-.4-2.04-.83-2.06-1.6-4.16-1.17-6.32-.34-.37.14-.67.51-1.27.29Z"/>
    <path class="cls-160" d="M69.73,88.97c-3.34,3.14-8.09,3.39-11.47,0-.47-.27-.71-.72-.32-1.11.41-.41.59.1.76.42.71,1.08,1.81,1.6,3.01,1.77,2.79.4,5.57.62,7.54-2.05.36-.31.71-.26.94.13.28.48-.17.64-.46.85Z"/>
    <path class="cls-37" d="M58.69,88.28c-.24-.06-.35-.61-.64-.3-.27.3.05.67.19.99-.16-.03-.34-.03-.48-.11-.45-.23-1.36.03-1.22-.89.13-.82.66-1.46,1.52-1.62.57-.11.98.17.88.84-.05.37-.17.72-.25,1.08Z"/>
    <path class="cls-149" d="M69.73,88.97c.55-.68.49-1.05-.48-.98.04-.76.56-.87,1.12-.73.62.15,1.31.67,1.22,1.19-.2,1.16-1.14.68-1.86.52Z"/>
    <path class="cls-169" d="M85.22,60.23c.08.26.17.51.25.77-.65,0-1.3,0-2.09,0,.55-.67,1.17-.78,1.84-.77Z"/>
    <path class="cls-32" d="M75.48,182.5c-.25.36-.65.14-.97.24,2.28-2.15,1.51-5.07,1.9-7.68.16-1.1.07-2.23.1-3.35,5.81-4.78,10.4-10.59,14.42-16.88.51-.8,1.04-1.58,1.57-2.36.73,2.45.59,5.02.99,7.51-.02.17-.05.34-.07.51-.15-.03-.33-.17-.44.03-1.38,2.4-3.19,4.51-4.5,6.96-1.66,2.04-3.35,4.06-4.98,6.12-2.23,2.83-4.67,5.45-7.24,7.97-.29.29-.53.63-.79.94Z"/>
    <path class="cls-62" d="M39.71,135.48c.08-.03.15-.07.23-.1.67-.27,1.32-.36,1.6.5.17.5-.1.92-.59,1.05-.83.22-1.22-.21-1.29-1.02,0-.06-.1-.12-.16-.18.07-.09.14-.17.21-.26Z"/>
    <path class="cls-163" d="M83.53,78.48c-.91.17-1.66-.25-2.38-.78-.34-.25-.54-.55-.28-.95.24-.36.6-.7,1.04-.41,1.24.84,2.39.76,3.53-.18.33-.27.68-.07.88.19.31.41.25.89-.13,1.24-.73.69-1.61,1-2.66.88Z"/>
    <path class="cls-1" d="M84.2,73.17c-.11.71-.45,1.11-1.14,1.12-.76,0-1.15-.39-1.14-1.14.01-.7.46-1.08,1.09-1.1.72-.02,1.07.49,1.19,1.12Z"/>
    <path class="cls-63" d="M42.44,78.5c-.88.01-1.61-.34-2.3-.83-.45-.32-.54-.72-.26-1.18.29-.48.72-.57,1.15-.22,1.08.87,2.1.76,3.13-.07.42-.34.77-.17,1.08.18.35.39.23.74-.11,1.08-.74.76-1.7.96-2.7,1.04Z"/>
    <path class="cls-1" d="M42.71,71.96c.72.05,1.19.43,1.2,1.14,0,.65-.42,1.09-1.09,1.13-.75.05-1.19-.4-1.2-1.12,0-.65.4-1.06,1.08-1.15Z"/>
    <path class="cls-101" d="M140.2,173.75c0-1.78.05-3.57,0-5.35-.03-.96.52-.97,1.19-.93.63.03,1.37-.2,1.34.91-.05,1.78-.01,3.57-.01,5.35-.83.31-1.67.37-2.51.02Z"/>
    <path class="cls-47" d="M138.72,173.47c0-1.7,0-3.39,0-5.09,0-.48-.01-.94.68-.91.63.03.56.49.56.9,0,1.78,0,3.56,0,5.34-.44.04-.85-.06-1.24-.24Z"/>
  </g>
</svg>