<svg width="146" height="86" viewBox="0 0 146 86" fill="none" xmlns="http://www.w3.org/2000/svg">
    <circle cx="79.1895" cy="42.9998" r="42.5" stroke="#24282B" />
    <path
        d="M144.689 42.9998C144.689 54.8066 142.073 65.4708 137.868 73.1656C133.652 80.879 127.911 85.4998 121.689 85.4998C115.468 85.4998 109.727 80.879 105.511 73.1656C101.306 65.4708 98.6895 54.8066 98.6895 42.9998C98.6895 31.193 101.306 20.5287 105.511 12.8339C109.727 5.12053 115.468 0.499756 121.689 0.499756C127.911 0.499756 133.652 5.12053 137.868 12.8339C142.073 20.5287 144.689 31.193 144.689 42.9998Z"
        stroke="#24282B" />
    <path
        d="M72.543 43.3533C72.7383 43.158 72.7383 42.8415 72.543 42.6462L69.361 39.4642C69.1658 39.269 68.8492 39.269 68.6539 39.4642C68.4587 39.6595 68.4587 39.9761 68.6539 40.1713L71.4823 42.9998L68.6539 45.8282C68.4587 46.0234 68.4587 46.34 68.6539 46.5353C68.8492 46.7306 69.1658 46.7306 69.361 46.5353L72.543 43.3533ZM0.189453 43.4998H72.1895V42.4998H0.189453V43.4998Z"
        fill="#24282B" />
</svg>