<?xml version="1.0" encoding="UTF-8"?>
<svg version="1.1" xmlns="http://www.w3.org/2000/svg" width="580" height="344">
<path d="M0 0 C0.73646759 -0.00705963 1.47293518 -0.01411926 2.23171997 -0.02139282 C33.00457572 -0.2494059 33.00457572 -0.2494059 47.01171875 3.203125 C47.82495605 3.39648438 48.63819336 3.58984375 49.47607422 3.7890625 C73.69676419 9.69721499 96.14306272 20.11197606 115.7890625 35.48828125 C117.88829782 37.22153337 117.88829782 37.22153337 120.01171875 38.203125 C120.5221875 37.47609375 121.03265625 36.7490625 121.55859375 36 C133.93578792 18.88260381 148.75822541 4.94212909 170.01171875 0.203125 C187.23658022 -1.26002961 202.71449122 1.38712175 216.55566406 12.43554688 C228.09323936 22.17195838 237.36278378 33.22915023 245.01171875 46.203125 C245.38296875 46.82509766 245.75421875 47.44707031 246.13671875 48.08789062 C265.11011145 80.33607024 274.04476389 121.03126816 274.21484375 158.23828125 C274.22190338 159.26662079 274.22896301 160.29496033 274.23623657 161.35446167 C274.4637559 204.22063802 274.4637559 204.22063802 271.01171875 222.203125 C270.81835938 223.25226074 270.625 224.30139648 270.42578125 225.38232422 C263.06314594 264.33725503 248.34291794 310.36970656 213.8046875 333.97241211 C199.06008923 343.57928884 183.56295371 346.52459559 166.2265625 343.5546875 C147.33742455 338.1840213 130.11140103 322.88955659 120.01171875 306.203125 C118.52671875 307.37875 118.52671875 307.37875 117.01171875 308.578125 C110.31634555 313.58489437 103.18179642 317.9170914 96.01171875 322.203125 C95.40440918 322.56728516 94.79709961 322.93144531 94.17138672 323.30664062 C72.28095864 336.22558179 45.49352048 344.24281962 20.0234375 344.40625 C19.28696991 344.41330963 18.55050232 344.42036926 17.79171753 344.42764282 C-12.98113822 344.6556559 -12.98113822 344.6556559 -26.98828125 341.203125 C-27.80151855 341.00976562 -28.61475586 340.81640625 -29.45263672 340.6171875 C-59.47912117 333.29282766 -86.09479701 319.06659256 -108.43652344 297.6875 C-109.4871224 296.68252176 -110.54262659 295.68265073 -111.60253906 294.6875 C-138.78549751 269.10353911 -154.8279319 234.75146629 -160.98828125 198.203125 C-161.21515625 196.90375 -161.44203125 195.604375 -161.67578125 194.265625 C-162.1887513 187.5970143 -161.98828125 180.89143622 -161.98828125 174.203125 C-209.50828125 174.203125 -257.02828125 174.203125 -305.98828125 174.203125 C-305.98828125 172.883125 -305.98828125 171.563125 -305.98828125 170.203125 C-258.46828125 170.203125 -210.94828125 170.203125 -161.98828125 170.203125 C-161.98828125 164.923125 -161.98828125 159.643125 -161.98828125 154.203125 C-161.70678584 151.0548211 -161.40118895 148.1040937 -160.86328125 145.015625 C-160.73131348 144.23429199 -160.5993457 143.45295898 -160.46337891 142.64794922 C-154.39358197 108.94688746 -139.13642307 78.48415526 -115.47265625 53.75488281 C-114.46767801 52.70428385 -113.46780698 51.64877966 -112.47265625 50.58886719 C-84.24707893 20.59919128 -41.52252434 0.26643188 0 0 Z M-70.98828125 25.203125 C-71.61009277 25.54037598 -72.2319043 25.87762695 -72.87255859 26.22509766 C-111.52750091 47.40740285 -139.19330545 84.3397064 -151.515625 126.2890625 C-155.63770492 140.96846383 -157.08325887 154.81774447 -157.98828125 170.203125 C-113.76828125 170.203125 -69.54828125 170.203125 -23.98828125 170.203125 C-27.87526003 165.59846383 -27.87526003 165.59846383 -31.98828125 161.203125 C-32.61328125 159.078125 -32.61328125 159.078125 -32.98828125 157.203125 C-28.41787671 158.63451543 -25.44319497 161.19892522 -22.11328125 164.515625 C-21.34757812 165.2262207 -21.34757812 165.2262207 -20.56640625 165.95117188 C-18.34559084 168.14497737 -17.02993103 169.52070933 -16.8359375 172.69921875 C-18.38911932 176.07409856 -20.65851288 178.41682082 -23.30078125 180.953125 C-23.78740234 181.44683594 -24.27402344 181.94054687 -24.77539062 182.44921875 C-27.34776218 184.97658246 -29.31928145 186.81966659 -32.98828125 187.203125 C-31.69582813 182.46413021 -28.923843 179.91814215 -25.44921875 176.65625 C-24.96710938 176.17671875 -24.485 175.6971875 -23.98828125 175.203125 C-23.98828125 174.873125 -23.98828125 174.543125 -23.98828125 174.203125 C-68.20828125 174.203125 -112.42828125 174.203125 -157.98828125 174.203125 C-157.28700755 188.1026948 -157.28700755 188.1026948 -155.42578125 201.765625 C-155.25723633 202.67199707 -155.08869141 203.57836914 -154.91503906 204.51220703 C-151.4991221 221.60638976 -145.52566077 238.01878572 -136.98828125 253.203125 C-136.65248047 253.81913574 -136.31667969 254.43514648 -135.97070312 255.06982422 C-114.79444458 293.73558282 -77.85816462 321.40625022 -35.90234375 333.73046875 C6.7092834 345.70318613 52.28132196 340.67711034 91.01171875 319.203125 C91.66011719 318.84460449 92.30851563 318.48608398 92.9765625 318.11669922 C101.70532235 313.22729735 109.48131854 307.82549358 117.01171875 301.203125 C116.52703125 300.28015625 116.04234375 299.3571875 115.54296875 298.40625 C95.14170781 258.96586825 86.54472283 216.82521874 86.69921875 172.640625 C86.70245148 170.97929031 86.70245148 170.97929031 86.70574951 169.28439331 C86.75538334 153.40400725 87.00902323 137.84488401 90.01171875 122.203125 C90.20507812 121.15398926 90.3984375 120.10485352 90.59765625 119.02392578 C95.20830355 94.62947477 102.65797963 71.29546257 114.01171875 49.203125 C115.01260833 47.20357004 116.01297523 45.20375275 117.01171875 43.203125 C108.89076001 36.06140869 100.43567477 30.43970638 91.01171875 25.203125 C90.40263672 24.85894531 89.79355469 24.51476562 89.16601562 24.16015625 C39.90852334 -3.33974854 -22.02673896 -1.80359072 -70.98828125 25.203125 Z M137.19921875 24.578125 C132.23087206 29.72859584 128.01133941 35.27818551 124.01171875 41.203125 C125.37137092 44.27102592 126.88042195 46.27515539 129.3203125 48.56640625 C129.97950684 49.19796631 130.63870117 49.82952637 131.31787109 50.48022461 C132.02121582 51.15190674 132.72456055 51.82358887 133.44921875 52.515625 C161.21909783 79.73655739 180.63875033 120.86563367 181.20150757 160.11300659 C181.20810898 161.14181442 181.20810898 161.14181442 181.21484375 162.19140625 C181.22190338 162.92787384 181.22896301 163.66434143 181.23623657 164.42312622 C181.46424965 195.19598197 181.46424965 195.19598197 178.01171875 209.203125 C177.81835938 210.0163623 177.625 210.82959961 177.42578125 211.66748047 C168.69648899 247.45353741 150.09926991 275.69529719 124.01171875 301.203125 C129.0637478 315.90955512 144.60345253 328.10683857 158.01171875 335.203125 C171.3466874 341.21628478 185.19462983 341.48472901 198.94921875 336.640625 C215.85201648 329.27273881 228.22748044 315.41499839 238.01171875 300.203125 C238.39038086 299.61499023 238.76904297 299.02685547 239.15917969 298.42089844 C273.52405109 243.84840968 276.45617653 168.13045375 262.8515625 106.8359375 C256.08365578 77.85937233 245.09438601 49.60852068 225.01171875 27.203125 C224.32851563 26.42582031 223.6453125 25.64851563 222.94140625 24.84765625 C211.83032093 12.93706479 197.44693466 5.0472423 181.01953125 4.16796875 C163.46880475 4.37310711 149.52050159 12.6493484 137.19921875 24.578125 Z M120.01171875 47.203125 C86.43619861 105.11403575 82.49790651 181.29604634 99.02368164 245.09985352 C103.93188809 263.2534183 110.40538587 280.96798775 120.01171875 297.203125 C139.29383111 289.73603247 155.25881109 259.03033762 163.23193359 241.52392578 C181.30409502 199.16899777 182.74935105 152.54921409 165.97363281 109.55175781 C163.38210215 103.2242134 160.31194117 97.18622865 157.01171875 91.203125 C156.67446777 90.58131348 156.3372168 89.95950195 155.98974609 89.31884766 C148.48893906 75.63085381 138.78615942 63.77265623 127.82421875 52.703125 C127.2715332 52.1447998 126.71884766 51.58647461 126.14941406 51.01123047 C123.55602081 48.11423471 123.55602081 48.11423471 120.01171875 47.203125 Z " fill="#23272A" transform="translate(305.98828125,-0.203125)"/>
</svg>
