<?xml version="1.0" encoding="UTF-8"?>
<svg id="Layer_2" data-name="Layer 2" xmlns="http://www.w3.org/2000/svg" viewBox="0 0 145.2 85.95">
  <defs>
    <style>
      .cls-1 {
        fill: #fefefe;
      }

      .cls-1, .cls-2, .cls-3, .cls-4, .cls-5, .cls-6, .cls-7, .cls-8 {
        stroke-width: 0px;
      }

      .cls-2 {
        fill: #7d7f80;
      }

      .cls-3 {
        fill: #a5a7a7;
      }

      .cls-4 {
        fill: #abadae;
      }

      .cls-5 {
        fill: #848687;
      }

      .cls-6 {
        fill: #7f8183;
      }

      .cls-7 {
        fill: #5b5e60;
      }

      .cls-8 {
        fill: #24282b;
      }
    </style>
  </defs>
  <g id="Layer_1-2" data-name="Layer 1">
    <path class="cls-8" d="M74.72,85.95c-1.45-.62-3.03-.62-4.54-.94-17.27-3.6-30.9-17.99-33.48-35.41-.24-1.65-.52-3.3-.46-4.96.04-1.04-.36-1.19-1.28-1.19-11.65.03-23.31.02-34.96.02v-1c11.65,0,23.31,0,34.96.02.92,0,1.23-.17,1.29-1.19.92-15.81,8.29-27.73,21.88-35.8,4.88-2.9,10.24-4.49,15.86-5.23.25-.03.61.12.73-.28h1c.25.19.5.19.75,0h6.5c1.84.27,3.7.24,5.53.67,6.17,1.43,11.78,4.02,16.84,7.84,1.21.92,1.2.89,2.14-.3,1.26-1.6,2.5-3.2,4.12-4.49,2.41-1.93,4.95-3.47,8.12-3.71h3.75c5.05.41,8.52,3.47,11.53,7.12,4.43,5.38,6.86,11.75,8.49,18.44.97,3.97,1.62,7.98,1.6,12.09,0,.13.05.24.13.34v.75c-.19.25-.19.5,0,.75v1.5c-.21,1.33-.21,2.67,0,4v1.5c-.16.17-.16.33,0,.5v1.25c-.3,2.34-.28,4.71-.68,7.04-1.44,8.39-3.98,16.35-9.21,23.21-2.26,2.96-5.01,5.44-8.58,6.85-1.07.42-2.2.34-3.27.63h-3.75c-5.44-.61-9.05-3.98-12.17-8.07-1-1.3-1-1.35-2.32-.34-5.24,4.03-11.14,6.56-17.59,7.89-1.46.3-2.96.24-4.42.52h-.75c-.25-.19-.5-.19-.75,0h-5.25c-.17-.16-.33-.16-.5,0h-1.25Z"/>
    <path class="cls-7" d="M145.2,44.98c-.41-1.33-.41-2.67,0-4v4Z"/>
    <path class="cls-5" d="M76.47,0c-.25.3-.5.38-.75,0h.75Z"/>
    <path class="cls-4" d="M145.2,39.48c-.39-.25-.39-.5,0-.75v.75Z"/>
    <path class="cls-6" d="M81.72,85.95c.25-.3.5-.38.75,0h-.75Z"/>
    <path class="cls-3" d="M145.2,46.98c-.37-.17-.33-.33,0-.5v.5Z"/>
    <path class="cls-2" d="M75.97,85.95c.17-.32.33-.28.5,0h-.5Z"/>
    <path class="cls-1" d="M70.91,43.63c-.77.74-1.44,1.37-2.09,2.01-.24.24-.5.49-.16.84.34.34.6.08.84-.16.95-.94,1.88-1.89,2.83-2.82.38-.37.39-.67,0-1.04-.96-.93-1.89-1.88-2.83-2.82-.24-.24-.49-.51-.84-.18-.37.34-.09.61.14.84.65.64,1.32,1.27,1.97,1.89-.29.46-.66.28-.96.28-10.5.01-20.99,0-31.49.03-.93,0-1.19-.19-1.13-1.15.94-15.2,7.88-26.87,20.92-34.65,14.76-8.81,33.56-7.33,47.06,3.31.73.58.81.96.33,1.78-3.83,6.61-5.8,13.84-6.74,21.36-1.23,9.88-.72,19.68,1.93,29.32,1.14,4.14,2.68,8.12,4.88,11.82.44.74.33,1.08-.32,1.59-24.83,19.75-62.16,5.54-67.49-25.72-.33-1.93-.56-3.87-.58-5.83,0-.62.09-.86.79-.86,10.83.02,21.66.02,32.48.02.07,0,.14.05.43.15Z"/>
    <path class="cls-1" d="M144.17,43.18c-.11,9.11-1.48,18.1-5.25,26.6-1.96,4.41-4.47,8.45-8.22,11.59-5.95,4.97-13.05,4.76-18.72-.53-1.53-1.42-2.87-3.01-4.09-4.7-.38-.53-.43-.84.1-1.32,7.36-6.69,12.03-14.94,13.54-24.77,2.32-15.15-2.22-28.07-13.27-38.67-.7-.67-.74-1.05-.21-1.79,2.26-3.1,4.84-5.83,8.4-7.44,5.03-2.28,10.49-1.13,15.02,3.11,4.52,4.24,7.21,9.59,9.18,15.35,2.49,7.27,3.44,14.79,3.52,22.57Z"/>
    <path class="cls-1" d="M106.87,74.41c-10.04-15.9-10.49-45.93-.03-62.87,18.87,15.99,19.26,46.41.03,62.87Z"/>
  </g>
</svg>